<svg width="71" height="49" viewBox="0 0 71 49" fill="none" xmlns="http://www.w3.org/2000/svg">
<path d="M64.6648 18.2678V18.2407C64.6648 11.2747 56.6732 5.59346 46.8201 5.59346C46.1777 5.59346 45.5469 5.61668 44.9238 5.66699C45.0457 5.03768 45.0125 4.38815 44.8271 3.77455C44.2233 1.8047 42.0793 0.450195 39.6103 0.450195C38.7197 0.45015 37.8377 0.623665 37.0135 0.961039C33.7394 2.28459 32.5436 6.6732 32.1992 10.9844C31.9902 11.1934 31.7851 11.4101 31.5954 11.6307C30.6744 11.4333 29.7385 11.3129 28.7974 11.2708C27.3075 8.7901 25.384 6.66159 23.182 6.66159C23.0711 6.65571 22.96 6.65571 22.8492 6.66159C19.459 6.9828 16.6881 11.6113 16.8158 14.2352C16.8314 14.6131 16.914 14.9853 17.0596 15.3343C15.6857 16.5754 14.5863 18.09 13.832 19.781C6.02232 21.6425 0.37207 27.045 0.37207 33.4267C0.37207 41.3448 9.07576 47.7651 19.8112 47.7651C25.0319 47.7651 29.7649 46.2442 33.2557 43.7751C37.2495 47.0027 42.7295 48.9997 48.7822 48.9997C60.996 48.9997 70.8955 40.8726 70.8955 30.8686C70.9033 25.9808 68.5232 21.5418 64.6648 18.2678Z" fill="#0F2167"/>
</svg>
