<svg width="18" height="18" viewBox="0 0 18 18" fill="none" xmlns="http://www.w3.org/2000/svg">
<g clip-path="url(#clip0_46_974)">
<path d="M16.9876 15.8802L11.7704 10.663C12.58 9.61632 13.0179 8.33663 13.0179 6.99065C13.0179 5.37949 12.3891 3.86878 11.2521 2.72972C10.115 1.59065 8.60029 0.963867 6.99114 0.963867C5.38199 0.963867 3.86726 1.59266 2.7302 2.72972C1.59114 3.86677 0.964355 5.37949 0.964355 6.99065C0.964355 8.5998 1.59315 10.1145 2.7302 11.2516C3.86726 12.3907 5.37998 13.0174 6.99114 13.0174C8.33712 13.0174 9.6148 12.5795 10.6615 11.7719L15.8786 16.9871C15.8939 17.0024 15.9121 17.0145 15.9321 17.0228C15.9521 17.0311 15.9735 17.0354 15.9952 17.0354C16.0168 17.0354 16.0382 17.0311 16.0582 17.0228C16.0782 17.0145 16.0964 17.0024 16.1117 16.9871L16.9876 16.1132C17.0029 16.0979 17.015 16.0797 17.0233 16.0597C17.0316 16.0398 17.0359 16.0183 17.0359 15.9967C17.0359 15.975 17.0316 15.9536 17.0233 15.9336C17.015 15.9136 17.0029 15.8955 16.9876 15.8802ZM10.1733 10.1728C9.3215 11.0226 8.19248 11.4907 6.99114 11.4907C5.7898 11.4907 4.66078 11.0226 3.809 10.1728C2.95922 9.32101 2.49114 8.19199 2.49114 6.99065C2.49114 5.78931 2.95922 4.65829 3.809 3.80851C4.66078 2.95873 5.7898 2.49065 6.99114 2.49065C8.19248 2.49065 9.32351 2.95672 10.1733 3.80851C11.0231 4.6603 11.4911 5.78931 11.4911 6.99065C11.4911 8.19199 11.0231 9.32302 10.1733 10.1728Z" fill="white"/>
</g>
<defs>
<clipPath id="clip0_46_974">
<rect width="18" height="18" fill="white"/>
</clipPath>
</defs>
</svg>
