<svg width="16" height="16" viewBox="0 0 16 16" fill="none" xmlns="http://www.w3.org/2000/svg">
<path d="M7.00508 3.51875C6.71445 3.51875 6.50508 3.72812 6.50508 4.01719C6.50508 4.30625 6.71602 4.51562 7.00508 4.51562C7.2957 4.51562 7.50508 4.30625 7.50508 4.01719C7.50664 3.72969 7.2957 3.51875 7.00508 3.51875V3.51875ZM13.1598 5.025C12.9441 4.80937 12.6488 4.68906 12.3285 4.68906C12.2676 4.68906 12.2129 4.69531 12.1613 4.70469V4.68906H12.1051C12.0191 4.21094 11.8145 3.74375 11.5098 3.32344C11.2176 2.92187 10.8379 2.575 10.4035 2.30937L10.7957 1.75V1.69844C10.7957 1.68594 10.802 1.6625 10.8066 1.63906C10.816 1.60156 10.8285 1.55312 10.8285 1.5C10.8285 1.21094 10.6176 1.00156 10.3285 1.00156C10.1754 1.00156 10.0238 1.09062 9.92383 1.24219L9.46602 1.9C8.99727 1.74687 8.49102 1.66562 8.00039 1.66562C7.51133 1.66562 7.00508 1.74687 6.53477 1.9L6.07852 1.24063C5.97539 1.09063 5.82695 1 5.67227 1C5.38164 1 5.17227 1.20938 5.17227 1.49844C5.17227 1.59531 5.21133 1.69844 5.27695 1.77031L5.63008 2.275C5.18164 2.54063 4.79414 2.89062 4.50195 3.29219C4.19883 3.7125 4.00195 4.17969 3.92852 4.65781H3.84258V4.67344C3.79258 4.66406 3.73789 4.65781 3.67539 4.65781C3.3582 4.65781 3.06289 4.775 2.8457 4.99062C2.63008 5.20625 2.50977 5.5 2.50977 5.81875V9.49062C2.50977 9.80781 2.62695 10.1016 2.84414 10.3172C3.05977 10.5328 3.35664 10.6531 3.67539 10.6531C3.73633 10.6531 3.79102 10.6469 3.84258 10.6375V12.0984C3.84258 12.5547 4.21602 12.9281 4.67383 12.9281H5.17227V13.8391C5.17227 14.1562 5.28945 14.45 5.50664 14.6656C5.72227 14.8812 6.01914 15.0016 6.33789 15.0016C6.65508 15.0016 6.95039 14.8844 7.16758 14.6687C7.3832 14.4531 7.50352 14.1594 7.50352 13.8406V12.9312H8.50039V13.8391C8.50039 14.1562 8.61758 14.45 8.83477 14.6656C9.05039 14.8812 9.34727 15.0016 9.66602 15.0016C9.98477 15.0016 10.2785 14.8844 10.4957 14.6641C10.7113 14.4484 10.8316 14.1547 10.8316 13.8359V12.9266H11.3301C11.7879 12.9266 12.1613 12.5547 12.1613 12.0969V10.6687C12.2113 10.6781 12.266 10.6844 12.3285 10.6844C12.6457 10.6844 12.941 10.5672 13.1582 10.3516C13.3738 10.1359 13.4941 9.84219 13.4941 9.52344V5.85156C13.4926 5.53437 13.3754 5.24219 13.1598 5.025V5.025ZM3.84414 9.525C3.84414 9.63125 3.7832 9.69062 3.67695 9.69062C3.5707 9.69062 3.50977 9.63125 3.50977 9.525V5.85156C3.50977 5.74531 3.5707 5.68594 3.67695 5.68594C3.7832 5.68594 3.84414 5.74531 3.84414 5.85156V9.525ZM5.89258 3.325C6.47852 2.89844 7.22539 2.66406 8.00195 2.66406C8.77852 2.66406 9.52539 2.9 10.1113 3.32812C10.6176 3.69844 10.9582 4.175 11.091 4.69531H4.91289C5.0457 4.17344 5.38945 3.69531 5.89258 3.325V3.325ZM6.50664 13.8672C6.49727 13.9547 6.43789 14.0031 6.34258 14.0031C6.23633 14.0031 6.17539 13.9437 6.17539 13.8375V12.9281H6.50664V13.8672ZM9.66758 14.0031C9.56133 14.0031 9.50039 13.9437 9.50039 13.8375V12.9281H9.83164V13.8672C9.82227 13.9547 9.76445 14.0031 9.66758 14.0031ZM11.1645 11.9312H4.84258V5.6875H11.1645V11.9312ZM12.4957 9.525C12.4957 9.63125 12.4348 9.69062 12.3285 9.69062C12.2223 9.69062 12.1613 9.63125 12.1613 9.525V5.85156C12.1613 5.74531 12.2223 5.68594 12.3285 5.68594C12.4348 5.68594 12.4957 5.74531 12.4957 5.85156V9.525ZM9.00195 3.51875C8.71133 3.51875 8.50195 3.72812 8.50195 4.01719C8.50195 4.30625 8.71289 4.51562 9.00195 4.51562C9.29258 4.51562 9.50352 4.30625 9.50352 4.01562C9.50195 3.725 9.29414 3.51875 9.00195 3.51875V3.51875Z" fill="black" fill-opacity="0.45"/>
</svg>
