<svg width="24" height="24" viewBox="0 0 24 24" fill="none" xmlns="http://www.w3.org/2000/svg">
<path d="M22.0156 12.5806C22.4656 11.986 22.7147 11.2574 22.7147 10.4994C22.7147 9.29667 22.0424 8.15828 20.9602 7.52346C20.6817 7.36005 20.3645 7.27405 20.0415 7.27435H13.6183L13.779 3.98239C13.8165 3.18685 13.5352 2.43149 12.9888 1.8556C12.7206 1.57175 12.3971 1.3459 12.0382 1.19202C11.6793 1.03815 11.2927 0.959504 10.9022 0.960957C9.50935 0.960957 8.27721 1.89846 7.90756 3.24042L5.60667 11.5708H2.14328C1.66917 11.5708 1.28613 11.9538 1.28613 12.4279V22.1779C1.28613 22.652 1.66917 23.0351 2.14328 23.0351H18.2495C18.496 23.0351 18.737 22.9869 18.9593 22.8904C20.2343 22.3467 21.0567 21.1011 21.0567 19.719C21.0567 19.3815 21.0085 19.0494 20.912 18.7279C21.362 18.1333 21.6111 17.4047 21.6111 16.6467C21.6111 16.3092 21.5629 15.977 21.4665 15.6556C21.9165 15.061 22.1656 14.3324 22.1656 13.5744C22.1602 13.2369 22.112 12.902 22.0156 12.5806V12.5806ZM3.2147 21.1065V13.4994H5.38435V21.1065H3.2147ZM20.2611 11.6511L19.6745 12.1601L20.0468 12.8404C20.1695 13.0645 20.2331 13.3162 20.2317 13.5717C20.2317 14.0136 20.0388 14.4342 19.7067 14.7235L19.1201 15.2324L19.4924 15.9127C19.615 16.1369 19.6786 16.3885 19.6772 16.644C19.6772 17.086 19.4843 17.5065 19.1522 17.7958L18.5656 18.3047L18.9379 18.9851C19.0606 19.2092 19.1242 19.4608 19.1227 19.7163C19.1227 20.3163 18.7692 20.8574 18.2227 21.1038H7.09863V13.4136L9.76381 3.75739C9.83254 3.50989 9.98006 3.29153 10.184 3.13541C10.388 2.97929 10.6373 2.89391 10.8942 2.89221C11.0977 2.89221 11.2986 2.95114 11.4593 3.07167C11.7245 3.26989 11.8665 3.56989 11.8504 3.88864L11.5933 9.20292H20.0147C20.4915 9.49489 20.7861 9.98774 20.7861 10.4994C20.7861 10.9413 20.5933 11.3592 20.2611 11.6511Z" fill="black" fill-opacity="0.45"/>
</svg>
