<svg width="16" height="16" viewBox="0 0 16 16" fill="none" xmlns="http://www.w3.org/2000/svg">
<g clip-path="url(#clip0_46_1047)">
<path d="M15.0998 14.1164L10.4623 9.47885C11.1819 8.54849 11.5712 7.41099 11.5712 6.21456C11.5712 4.78242 11.0123 3.43956 10.0016 2.42706C8.99086 1.41456 7.64443 0.857422 6.21408 0.857422C4.78372 0.857422 3.43729 1.41635 2.42658 2.42706C1.41408 3.43778 0.856934 4.78242 0.856934 6.21456C0.856934 7.64492 1.41586 8.99135 2.42658 10.0021C3.43729 11.0146 4.78193 11.5717 6.21408 11.5717C7.41051 11.5717 8.54622 11.1824 9.47658 10.4646L14.1141 15.1003C14.1277 15.1139 14.1438 15.1247 14.1616 15.132C14.1794 15.1394 14.1984 15.1432 14.2176 15.1432C14.2369 15.1432 14.2559 15.1394 14.2737 15.132C14.2915 15.1247 14.3076 15.1139 14.3212 15.1003L15.0998 14.3235C15.1134 14.3099 15.1242 14.2937 15.1316 14.276C15.1389 14.2582 15.1427 14.2392 15.1427 14.2199C15.1427 14.2007 15.1389 14.1816 15.1316 14.1639C15.1242 14.1461 15.1134 14.1299 15.0998 14.1164ZM9.04265 9.04314C8.28551 9.79849 7.28193 10.2146 6.21408 10.2146C5.14622 10.2146 4.14265 9.79849 3.38551 9.04314C2.63015 8.28599 2.21408 7.28242 2.21408 6.21456C2.21408 5.14671 2.63015 4.14135 3.38551 3.38599C4.14265 2.63064 5.14622 2.21456 6.21408 2.21456C7.28193 2.21456 8.28729 2.62885 9.04265 3.38599C9.79801 4.14314 10.2141 5.14671 10.2141 6.21456C10.2141 7.28242 9.79801 8.28778 9.04265 9.04314Z" fill="black" fill-opacity="0.45"/>
</g>
<defs>
<clipPath id="clip0_46_1047">
<rect width="16" height="16" fill="white"/>
</clipPath>
</defs>
</svg>
