<svg width="71" height="50" viewBox="0 0 71 50" fill="none" xmlns="http://www.w3.org/2000/svg">
<path d="M64.4657 18.4592C64.4657 18.4592 64.4657 18.4398 64.4657 18.4282C64.4657 11.4622 56.4741 5.78487 46.6171 5.78487C45.9798 5.78487 45.349 5.80809 44.7246 5.85453C44.8442 5.22505 44.811 4.57608 44.6279 3.96208C44.0242 2.02707 41.8802 0.641602 39.4188 0.641602C38.5283 0.641556 37.6462 0.815072 36.8221 1.15244C33.548 2.47599 32.3522 6.8646 32.0078 11.1719C31.7988 11.3848 31.5937 11.6015 31.404 11.8221C30.483 11.6247 29.547 11.5043 28.606 11.4622C27.1122 8.98151 25.1926 6.84912 22.9867 6.84912C22.8784 6.84912 22.7661 6.84912 22.6539 6.84912C19.2638 7.1742 16.4967 11.7989 16.6205 14.4266C16.6374 14.8048 16.7213 15.1769 16.8682 15.5257C15.4922 16.765 14.3925 18.2801 13.6406 19.9724C5.8309 21.8339 0.180664 27.2364 0.180664 33.6181C0.180664 41.5362 8.88434 47.9565 19.6198 47.9565C24.8366 47.9565 29.5735 46.4356 33.0643 43.9665C37.0581 47.1941 42.5381 49.1872 48.5908 49.1872C60.8046 49.1872 70.7041 41.0601 70.7041 31.06C70.708 26.1722 68.3279 21.7255 64.4657 18.4592Z" fill="#0F2167"/>
</svg>
