<svg width="19" height="23" viewBox="0 0 19 23" fill="none" xmlns="http://www.w3.org/2000/svg">
<path d="M4.56006 2.80134V9.04756H14.0919V2.80134C14.0373 2.08015 14.2524 1.36436 14.6957 0.792801C14.8945 0.572323 15.1393 0.398116 15.4128 0.282443C15.6863 0.16677 15.9818 0.112444 16.2785 0.123286C16.5792 0.111615 16.8789 0.164659 17.1573 0.27883C17.4357 0.393002 17.6864 0.565639 17.8923 0.78506C18.3467 1.35446 18.5679 2.07508 18.5115 2.80134V19.9765C18.5678 20.7064 18.3436 21.4303 17.8846 22.0005C17.6803 22.2206 17.4313 22.3942 17.1542 22.5097C16.8772 22.6252 16.5785 22.6799 16.2785 22.6701C15.9797 22.6822 15.682 22.6277 15.4069 22.5105C15.1318 22.3934 14.8862 22.2166 14.6879 21.9928C14.2499 21.4159 14.0379 20.6988 14.0919 19.9765V12.6467H4.56006V19.9765C4.61547 20.7057 4.39286 21.4288 3.93698 22.0005C3.73246 22.2202 3.48335 22.3935 3.20635 22.509C2.92936 22.6245 2.63088 22.6794 2.33092 22.6701C2.03217 22.6822 1.73446 22.6277 1.45936 22.5105C1.18426 22.3934 0.938668 22.2166 0.740347 21.9928C0.298204 21.4175 0.0820571 20.7003 0.13275 19.9765V2.80134C0.0791806 2.08269 0.288192 1.36901 0.72099 0.792801C0.921053 0.569624 1.16827 0.393761 1.44472 0.277961C1.72117 0.162161 2.01992 0.109327 2.31931 0.123286C2.61991 0.112373 2.91938 0.165764 3.19769 0.279889C3.47599 0.394014 3.72672 0.566244 3.93312 0.78506C4.39024 1.35333 4.61434 2.07406 4.56006 2.80134Z" fill="white"/>
</svg>
