<svg width="72" height="49" viewBox="0 0 72 49" fill="none" xmlns="http://www.w3.org/2000/svg">
<path d="M64.8681 18.057C64.8681 18.057 64.8681 18.057 64.8681 18.026C64.8681 11.06 56.8765 5.3788 47.0195 5.3788C46.381 5.3788 45.7501 5.40589 45.1271 5.45233C45.2451 4.82943 45.2132 4.1874 45.0342 3.57924C44.4305 1.621 42.2865 0.254883 39.8251 0.254883C38.9348 0.256697 38.0531 0.430143 37.2283 0.765726C33.9659 2.06992 32.7585 6.45853 32.4179 10.7697C32.2089 10.9787 32.0038 11.1954 31.8142 11.416C30.8931 11.2189 29.9572 11.0985 29.0162 11.0561C27.5223 8.57544 25.6028 6.44692 23.3969 6.44692C23.286 6.44123 23.1749 6.44123 23.064 6.44692C19.6739 6.76814 16.9068 11.3967 17.0307 14.0206C17.0448 14.3991 17.1288 14.7717 17.2784 15.1197C15.9032 16.3621 14.8025 17.8779 14.0469 19.5702C6.24105 21.4278 0.59082 26.8342 0.59082 33.212C0.59082 41.134 9.2945 47.5505 20.03 47.5505C25.2467 47.5505 29.9837 46.0334 33.4744 43.5605C37.4683 46.7919 42.9482 48.785 49.001 48.785C61.2109 48.785 71.1143 40.658 71.1143 30.6578C71.1182 25.7661 68.7304 21.3194 64.8681 18.057Z" fill="#0F2167"/>
</svg>
