<svg width="15" height="17" viewBox="0 0 15 17" fill="none" xmlns="http://www.w3.org/2000/svg">
<path d="M10.95 14.3796V13.8571C10.4973 14.4328 9.97766 14.9524 9.40202 15.4051C8.87637 15.817 8.28135 16.1315 7.64503 16.334C6.94169 16.5484 6.20915 16.6515 5.47395 16.6397C4.55748 16.654 3.65139 16.4441 2.83459 16.0282C2.08769 15.6488 1.46271 15.0667 1.03115 14.3486C0.52805 13.4856 0.257149 12.2472 0.257149 10.6295V2.58762C0.215746 1.92998 0.422937 1.28078 0.837652 0.768708C1.02164 0.568229 1.24717 0.410337 1.4985 0.30606C1.74984 0.201783 2.02092 0.153636 2.29279 0.164984C2.5699 0.152946 2.84636 0.200626 3.10343 0.30479C3.3605 0.408954 3.59216 0.567168 3.78274 0.768708C4.19441 1.28019 4.39638 1.92898 4.34777 2.58375V9.08539C4.33217 9.88273 4.41141 10.6791 4.58383 11.4577C4.70775 12.0343 5.00641 12.5586 5.43912 12.9593C5.91003 13.3408 6.5058 13.5339 7.11096 13.5011C7.80263 13.4993 8.47743 13.2874 9.04597 12.8935C9.63455 12.5039 10.095 11.9493 10.3695 11.299C10.594 10.7289 10.7062 9.46981 10.7062 7.5219V2.58762C10.6577 1.93104 10.8611 1.28063 11.2751 0.768708C11.4633 0.567775 11.6921 0.409296 11.9464 0.303851C12.2006 0.198407 12.4745 0.148425 12.7496 0.157243C13.0194 0.149395 13.2878 0.199974 13.5363 0.305514C13.7848 0.411053 14.0075 0.569059 14.1892 0.768708C14.5938 1.28625 14.7899 1.93656 14.7388 2.59149V14.3486C14.7871 14.9745 14.5994 15.5958 14.2125 16.0901C14.0354 16.2755 13.8222 16.4226 13.586 16.5224C13.3498 16.6223 13.0958 16.6726 12.8394 16.6704C12.583 16.6683 12.3298 16.6136 12.0954 16.5098C11.861 16.406 11.6503 16.2553 11.4763 16.0669C11.0947 15.5908 10.9067 14.9882 10.95 14.3796Z" fill="white"/>
</svg>
