<svg width="71" height="49" viewBox="0 0 71 49" fill="none" xmlns="http://www.w3.org/2000/svg">
<path d="M64.6732 18.2482V18.2173C64.6732 11.2319 56.6855 5.57002 46.8285 5.57002C46.19 5.57002 45.5592 5.59711 44.9361 5.64355C45.056 5.0141 45.0228 4.36505 44.8393 3.75111C44.2317 1.79288 42.0916 0.426758 39.6264 0.426758C38.7373 0.428585 37.8569 0.60204 37.0335 0.937601C33.7401 2.25728 32.5791 6.64976 32.2192 10.961C32.0063 11.1699 31.8051 11.3867 31.6155 11.6073C30.6931 11.4099 29.7559 11.2895 28.8136 11.2473C27.3236 8.76666 25.4002 6.63815 23.1982 6.63815C23.0873 6.63236 22.9762 6.63236 22.8653 6.63815C19.4752 6.95936 16.7081 11.5879 16.832 14.2118C16.8466 14.5902 16.9306 14.9627 17.0797 15.3109C15.7045 16.5519 14.6039 18.0664 13.8482 19.7575C6.04233 21.6345 0.39209 27.0254 0.39209 33.4187C0.39209 41.3368 9.09578 47.7572 19.8274 47.7572C25.048 47.7572 29.7849 46.2363 33.2757 43.7672C37.2696 46.9948 42.7495 48.9917 48.8023 48.9917C61.0122 48.9917 70.9117 40.8647 70.9117 30.8606C70.9117 25.9573 68.5316 21.5107 64.6732 18.2482Z" fill="#0F2167"/>
</svg>
