<svg width="22" height="27" viewBox="0 0 22 27" fill="none" xmlns="http://www.w3.org/2000/svg">
<path d="M18.0715 0.801911C17.5595 0.788729 17.0507 0.88555 16.5793 1.08584C16.108 1.28613 15.6851 1.58522 15.3393 1.96292C14.6404 2.82153 14.2896 3.91132 14.3563 5.01637V9.70297H7.90492V5.01637C7.90492 3.71217 7.55663 2.69435 6.87163 1.94357C6.52093 1.56783 6.09497 1.27024 5.62153 1.07019C5.14808 0.870144 4.63778 0.772137 4.12391 0.782561C3.60401 0.768463 3.08732 0.868189 2.61001 1.07476C2.1327 1.28132 1.70632 1.58974 1.36072 1.9784C0.675854 2.83495 0.330093 3.91355 0.389339 5.00863V22.1838C0.332163 23.2829 0.682137 24.3645 1.37233 25.2218C1.71528 25.6109 2.13943 25.92 2.61486 26.1272C3.0903 26.3345 3.60543 26.435 4.12391 26.4215C4.63659 26.4315 5.14562 26.3333 5.61776 26.1333C6.0899 25.9332 6.51452 25.6358 6.8639 25.2605C7.59883 24.4023 7.97204 23.2923 7.90492 22.1645V16.3594H14.3563V22.1645C14.2973 23.2631 14.6459 24.345 15.3354 25.2024C15.6788 25.5909 16.1031 25.8996 16.5784 26.1068C17.0537 26.314 17.5686 26.4148 18.087 26.4021C18.5996 26.4117 19.1085 26.3133 19.5805 26.1133C20.0526 25.9132 20.4773 25.6161 20.8269 25.2411C21.5619 24.3829 21.9351 23.273 21.868 22.1451V5.01637C21.868 3.71217 21.5197 2.69435 20.8347 1.94357C20.4805 1.56937 20.0513 1.27422 19.5751 1.07748C19.0989 0.880733 18.5865 0.786826 18.0715 0.801911Z" fill="#0F2167"/>
</svg>
