<svg width="23" height="27" viewBox="0 0 23 27" fill="none" xmlns="http://www.w3.org/2000/svg">
<path d="M18.2579 0.623406C17.7439 0.612609 17.2336 0.712415 16.7615 0.916066C16.2894 1.11972 15.8666 1.42245 15.5218 1.80376C14.8192 2.65811 14.4629 3.74501 14.5233 4.84947V9.54381H8.08746V4.84947C8.08746 3.54527 7.73916 2.52746 7.05417 1.77667C6.70421 1.40104 6.27893 1.10347 5.80612 0.903412C5.33331 0.703352 4.82361 0.605301 4.31032 0.615666C3.79035 0.601039 3.27348 0.700525 2.79609 0.907127C2.3187 1.11373 1.89238 1.42243 1.54712 1.8115C0.860624 2.66718 0.514669 3.74642 0.575751 4.84173V22.0169C0.516614 23.1144 0.865341 24.1951 1.55487 25.051C1.89805 25.4411 2.32269 25.7511 2.79882 25.959C3.27494 26.167 3.79093 26.2679 4.31032 26.2546C4.82232 26.2639 5.33053 26.1653 5.80193 25.9652C6.27332 25.7652 6.69734 25.4682 7.04642 25.0936C7.73916 24.3544 8.08746 23.3172 8.08746 21.9976V16.1925H14.5233V21.9976C14.4653 23.0956 14.8154 24.1763 15.5063 25.0317C15.8486 25.4219 16.2725 25.732 16.748 25.94C17.2235 26.148 17.739 26.2488 18.2579 26.2352C18.77 26.2452 19.2784 26.147 19.7499 25.9469C20.2214 25.7468 20.6454 25.4495 20.994 25.0742C21.7318 24.2174 22.1066 23.1068 22.0389 21.9782V4.84947C22.0389 3.54527 21.6906 2.52746 21.0056 1.77667C20.6539 1.40273 20.2276 1.10683 19.7543 0.908165C19.2809 0.709495 18.7711 0.612481 18.2579 0.623406Z" fill="#0F2167"/>
</svg>
