<svg width="72" height="49" viewBox="0 0 72 49" fill="none" xmlns="http://www.w3.org/2000/svg">
<path d="M65.0672 17.8654V17.8345C65.0672 10.8491 57.0756 5.18725 47.2187 5.18725C46.5801 5.18725 45.9493 5.21434 45.3262 5.26078C45.4478 4.63144 45.4146 3.98199 45.2295 3.36833C44.6257 1.43332 42.4817 0.0478516 40.0204 0.0478516C39.1303 0.0483395 38.2486 0.220473 37.4236 0.554825C34.1496 1.87837 32.9537 6.26698 32.6093 10.5782C32.4003 10.791 32.1952 11.0039 32.0056 11.2245C31.0842 11.0289 30.1484 10.9086 29.2076 10.8646C27.7137 8.38389 25.7942 6.25537 23.5921 6.25537C23.48 6.24958 23.3676 6.24958 23.2555 6.25537C19.8653 6.58046 17.0982 11.2051 17.2221 13.829C17.2381 14.2073 17.322 14.5795 17.4698 14.9281C16.0945 16.1696 14.995 17.6857 14.2422 19.3786C6.43246 21.2401 0.782227 26.6427 0.782227 33.0205C0.782227 40.9424 9.48591 47.3628 20.2214 47.3628C25.442 47.3628 30.1751 45.8419 33.6658 43.3728C37.6597 46.6004 43.1397 48.5935 49.1924 48.5935C61.4062 48.5935 71.3057 40.4664 71.3057 30.4663C71.3057 25.5745 68.9256 21.1279 65.0672 17.8654Z" fill="#0F2167"/>
</svg>
