<svg width="71" height="50" viewBox="0 0 71 50" fill="none" xmlns="http://www.w3.org/2000/svg">
<path d="M64.4745 18.4387V18.4077C64.4745 11.4416 56.4868 5.76045 46.6298 5.76045C45.9874 5.76045 45.3566 5.78754 44.7335 5.83398C44.8562 5.20495 44.8243 4.55554 44.6406 3.94154C44.033 1.98331 41.889 0.617188 39.4277 0.617188C38.5374 0.619388 37.6558 0.792819 36.8309 1.12803C33.5608 2.45158 32.3533 6.84019 32.0205 11.1514C31.8115 11.3604 31.6103 11.5771 31.4168 11.7977C30.4957 11.6 29.5598 11.4796 28.6187 11.4378C27.1288 8.95709 25.2054 6.82858 23.0033 6.82858C22.8925 6.82279 22.7814 6.82279 22.6705 6.82858C19.2804 7.14979 16.5133 11.7783 16.6371 14.4022C16.6518 14.7806 16.7357 15.1532 16.8848 15.5013C15.5097 16.7423 14.409 18.2569 13.6533 19.948C5.84363 21.8327 0.197266 27.2507 0.197266 33.6092C0.197266 41.5272 8.89708 47.9476 19.6325 47.9476C24.8532 47.9476 29.5862 46.4267 33.0809 43.9576C37.0709 47.1852 42.5547 49.1821 48.6035 49.1821C60.8173 49.1821 70.7169 41.0551 70.7169 31.0511C70.7169 26.1477 68.3445 21.7011 64.4745 18.4387Z" fill="#0F2167"/>
</svg>
