<svg width="115" height="31" viewBox="0 0 115 31" fill="none" xmlns="http://www.w3.org/2000/svg">
<path d="M102.525 30.7751C100.896 30.7914 99.2784 30.4958 97.7605 29.9044C96.9951 29.5957 96.2647 29.2065 95.5817 28.7434L95.4772 28.8633C94.9272 29.4747 94.2528 29.9613 93.4991 30.2904C92.7455 30.6194 91.9302 30.7834 91.1079 30.7713C88.7085 30.7713 86.8509 29.587 85.9066 27.6288C85.6956 28.0452 85.4358 28.4349 85.1326 28.7898C84.5823 29.425 83.8991 29.9314 83.1314 30.2731C82.3636 30.6149 81.5301 30.7836 80.6898 30.7674C77.172 30.7674 74.8113 28.2248 74.8113 24.4322V12.2454H74.6448V24.2116C74.6448 26.1466 74.0914 27.6946 73.0078 28.8556C72.4375 29.4578 71.7505 29.9374 70.9886 30.2652C70.2267 30.593 69.406 30.762 68.5766 30.762C67.7473 30.762 66.9266 30.593 66.1647 30.2652C65.4028 29.9374 64.7158 29.4578 64.1455 28.8556C63.0541 27.6714 62.5046 26.1079 62.5046 24.2116V12.2454H61.5564C60.9382 12.2477 60.3221 12.1736 59.722 12.0249C60.0025 12.7021 60.1963 13.4121 60.2987 14.1379C60.4119 15.0454 60.4636 15.9595 60.4535 16.874V24.4283C60.514 26.0453 59.9611 27.6254 58.9054 28.8517C58.3516 29.4567 57.6774 29.9393 56.9261 30.2684C56.1749 30.5976 55.3631 30.7661 54.5429 30.7632C53.7227 30.7603 52.9121 30.586 52.1632 30.2515C51.4143 29.917 50.7436 29.4297 50.194 28.8208C49.8619 28.4445 49.5796 28.0269 49.3542 27.5785C48.9916 28.2763 48.4934 28.8946 47.8888 29.3974C47.2842 29.9002 46.5853 30.2772 45.8331 30.5065C45.0809 30.7357 44.2905 30.8125 43.5083 30.7324C42.726 30.6522 41.9676 30.4168 41.2775 30.0398C40.4138 30.5169 39.4429 30.766 38.4562 30.7635C37.2653 30.7586 36.1092 30.3614 35.1667 29.6335C34.9655 29.7263 34.7797 29.8154 34.5669 29.9005C33.1148 30.4853 31.5617 30.7786 29.9964 30.7635C28.4232 30.7852 26.8682 30.4253 25.4646 29.7147C24.5841 29.2587 23.7883 28.6553 23.1116 27.9307C22.1907 28.6663 21.1722 29.2707 20.0852 29.7263C18.3396 30.4397 16.4676 30.7925 14.582 30.7635C13.2339 30.7754 11.8888 30.6339 10.5727 30.3417C9.27662 30.0467 8.03476 29.5505 6.8923 28.8711C5.73003 28.1692 4.6907 27.2815 3.81563 26.2433C3.01187 25.2878 2.33422 24.233 1.79935 23.1047C1.25432 21.9627 0.847669 20.7596 0.58803 19.5211C0.324444 18.2481 0.194738 16.951 0.201027 15.6511C0.181033 13.5953 0.52159 11.552 1.20723 9.61383C1.86951 7.78325 2.90391 6.10976 4.2452 4.69889C5.56792 3.3293 7.16496 2.25449 8.93181 1.54482C10.6962 0.838063 12.5807 0.479301 14.4814 0.488305C16.7223 0.458845 18.938 0.964326 20.9444 1.96279C22.7532 2.84609 24.3203 4.15559 25.511 5.77863C25.9368 6.37704 26.3024 7.01613 26.6023 7.68655C26.792 7.59754 26.9893 7.5124 27.1867 7.43113C28.937 6.76748 30.7993 6.44943 32.6705 6.49459C34.9926 6.49459 36.8386 6.80032 38.3517 7.41952C38.8933 7.64186 39.4117 7.91665 39.8998 8.23997C40.4321 7.68422 41.0739 7.24492 41.7847 6.94983C42.4954 6.65474 43.2596 6.51027 44.0291 6.52555C45.0537 6.51586 46.0619 6.78329 46.9471 7.29955L47.0438 7.3576C48.3592 6.78958 49.7791 6.5035 51.2118 6.51781C52.718 6.50333 54.207 6.83849 55.5617 7.49692C55.5117 7.18467 55.4871 6.86887 55.4882 6.55264C55.481 5.74492 55.6505 4.94539 55.9847 4.21004C56.319 3.47469 56.8099 2.82129 57.4232 2.29561C58.5962 1.32397 60.0845 0.815919 61.6067 0.867568H75.6433C76.371 0.873668 77.0923 1.00457 77.7757 1.25457C78.6793 0.742141 79.7014 0.475287 80.7401 0.480565C81.5735 0.464493 82.4004 0.629139 83.164 0.963176C83.9276 1.29721 84.6098 1.79271 85.1636 2.41558C86.1297 3.59576 86.6429 5.08197 86.611 6.60682C86.998 6.56812 87.385 6.5449 87.7991 6.5449C89.4026 6.52539 90.9848 6.91427 92.3967 7.67494C93.1981 8.10159 93.9249 8.65579 94.5484 9.31583C95.5151 8.49208 96.6142 7.83784 97.7992 7.38082C99.3079 6.80651 100.91 6.5178 102.525 6.52942C104.155 6.50838 105.774 6.7973 107.296 7.38082C108.773 7.95458 110.11 8.8389 111.216 9.97395C112.321 11.109 113.17 12.4683 113.705 13.9599C114.768 16.9912 114.768 20.294 113.705 23.3253C113.161 24.8174 112.31 26.1783 111.205 27.3192C110.103 28.4496 108.774 29.3322 107.304 29.9082C105.78 30.4961 104.158 30.7902 102.525 30.7751ZM14.5008 11.7385C14.2532 11.7107 14.0028 11.7503 13.7759 11.8532C13.5491 11.956 13.3542 12.1183 13.2121 12.3228C12.8521 12.7834 12.438 13.7664 12.438 15.8059C12.3974 16.727 12.5368 17.6471 12.8483 18.5149C12.9453 18.8203 13.1313 19.0898 13.3823 19.2889C13.6804 19.4636 14.0247 19.5432 14.3692 19.5172C14.7067 19.5443 15.0443 19.4673 15.3367 19.2966C15.6155 19.0495 15.8194 18.729 15.9249 18.3717C16.2087 17.4897 16.6363 16.6606 17.1904 15.9181C17.3533 15.7052 17.5332 15.5059 17.7284 15.3221C17.7203 15.3121 17.7113 15.3031 17.7013 15.295C17.0069 14.599 16.4317 13.7936 15.9985 12.9111C15.8135 12.5048 15.5381 12.1461 15.1935 11.8623C14.9786 11.7574 14.7387 11.7145 14.5008 11.7385Z" fill="#0F2167"/>
</svg>
