<svg width="22" height="27" viewBox="0 0 22 27" fill="none" xmlns="http://www.w3.org/2000/svg">
<path d="M17.8676 1.00516C17.3548 0.990656 16.845 1.08686 16.3729 1.28721C15.9007 1.48757 15.4773 1.78736 15.1315 2.16617C14.426 3.02196 14.0695 4.11239 14.133 5.21962V9.92557H7.69713V5.21962C7.69713 3.91929 7.34883 2.8976 6.66384 2.15069C6.31329 1.77476 5.88735 1.47703 5.41387 1.27697C4.94039 1.07691 4.43002 0.979013 3.91612 0.989682C3.39672 0.975095 2.88044 1.07462 2.40368 1.28124C1.92692 1.48785 1.50129 1.79654 1.15679 2.18552C0.469048 3.04203 0.122985 4.12295 0.185407 5.21962V22.4025C0.125671 23.5013 0.474412 24.5834 1.16452 25.4405C1.50779 25.8295 1.93192 26.1387 2.40721 26.3466C2.8825 26.5545 3.39748 26.656 3.91612 26.6441C4.42872 26.6537 4.9376 26.5552 5.40967 26.3552C5.88174 26.1552 6.30642 25.858 6.65609 25.4831C7.39067 24.6247 7.76383 23.5149 7.69713 22.3871V16.6207H14.133V22.4025C14.0732 23.5013 14.422 24.5834 15.1121 25.4405C15.4558 25.83 15.8805 26.1395 16.3565 26.3474C16.8325 26.5554 17.3483 26.6566 17.8676 26.6441C18.3795 26.6534 18.8878 26.5548 19.3592 26.3547C19.8306 26.1547 20.2546 25.8577 20.6037 25.4831C21.2964 24.7439 21.6447 23.7067 21.6447 22.3871V5.21962C21.6447 3.91929 21.2964 2.8976 20.6114 2.15069C20.2601 1.77786 19.8342 1.48318 19.3614 1.28581C18.8887 1.08845 18.3797 0.992825 17.8676 1.00516Z" fill="#0F2167"/>
</svg>
