<svg width="19" height="21" viewBox="0 0 19 21" fill="none" xmlns="http://www.w3.org/2000/svg">
<path d="M14.7496 0.61231C14.2613 0.602009 13.7763 0.695326 13.3267 0.886109C12.8771 1.07689 12.473 1.36081 12.1412 1.71914C11.4559 2.51245 11.1037 3.53992 11.1582 4.58683V9.52111C11.1582 12.0676 10.9492 12.6674 10.9415 12.6945C10.7788 13.0684 10.5096 13.3861 10.1675 13.6079C9.85447 13.831 9.47986 13.9514 9.09546 13.9523C8.86733 13.9704 8.63941 13.9148 8.44528 13.7936C8.2457 13.6036 8.11041 13.356 8.05828 13.0854C7.91733 12.4281 7.85369 11.7566 7.86865 11.0846V4.58683C7.92744 3.54201 7.58087 2.51479 6.90115 1.71914C6.56645 1.3602 6.15968 1.07605 5.7075 0.885307C5.25531 0.694563 4.76792 0.601531 4.27727 0.61231C3.78995 0.600875 3.30582 0.693712 2.8573 0.8846C2.40878 1.07549 2.00623 1.36002 1.67661 1.71914C1.00664 2.51967 0.665057 3.54442 0.720717 4.58683V12.6287C0.720717 14.5638 1.04193 16.015 1.69983 17.1412C2.27748 18.107 3.11583 18.8904 4.1186 19.4013C5.15741 19.9284 6.30917 20.1941 7.47392 20.1753C8.3697 20.1836 9.26135 20.0531 10.1171 19.7883C10.8239 19.5629 11.4911 19.2287 12.0947 18.7976C12.1667 18.8973 12.2442 18.9929 12.3269 19.0839C12.6457 19.4327 13.0333 19.7118 13.4652 19.9035C13.8971 20.0953 14.364 20.1956 14.8365 20.1981C15.3091 20.2007 15.777 20.1054 16.2109 19.9183C16.6449 19.7312 17.0354 19.4564 17.358 19.111C18.0079 18.3341 18.3398 17.34 18.2868 16.3285V4.58683C18.349 3.54682 18.0143 2.52195 17.3502 1.71914C17.0208 1.35982 16.6182 1.07515 16.1697 0.88425C15.7211 0.693346 15.2369 0.600624 14.7496 0.61231Z" fill="#0F2167"/>
</svg>
