<svg width="23" height="27" viewBox="0 0 23 27" fill="none" xmlns="http://www.w3.org/2000/svg">
<path d="M18.2785 0.575591C17.7641 0.56477 17.2534 0.664951 16.7813 0.86931C16.3091 1.07367 15.8865 1.3774 15.5423 1.75982C14.8397 2.61261 14.4833 3.69836 14.5439 4.80166V9.49987H8.10803V4.80166C8.10803 3.49746 7.75973 2.47964 7.07473 1.73273C6.72523 1.35651 6.30004 1.05855 5.82712 0.858443C5.3542 0.658337 4.84428 0.56062 4.33089 0.571721C3.81091 0.557094 3.29405 0.65658 2.81666 0.863182C2.33927 1.06978 1.91295 1.37848 1.56769 1.76756C0.876781 2.62294 0.526654 3.70363 0.584703 4.80166V21.9768C0.524968 23.0756 0.873708 24.1577 1.56382 25.0148C1.90751 25.4043 2.33225 25.7138 2.80826 25.9217C3.28426 26.1297 3.79999 26.2309 4.31928 26.2184C4.83137 26.2284 5.33981 26.1301 5.81132 25.9301C6.28282 25.73 6.70676 25.4326 7.05539 25.0574C7.74812 24.3182 8.09642 23.2849 8.09642 21.9614V16.195H14.5323V21.9768C14.4736 23.0761 14.8238 24.1582 15.5153 25.0148C15.858 25.4044 16.282 25.7141 16.7575 25.922C17.2329 26.13 17.7481 26.2311 18.2668 26.2184C18.7789 26.2284 19.2874 26.1301 19.7589 25.9301C20.2304 25.73 20.6543 25.4326 21.003 25.0574C21.74 24.2002 22.1147 23.0899 22.0479 21.9614V4.80166C22.1106 3.68273 21.7407 2.58252 21.0146 1.72886C20.6642 1.35638 20.2398 1.06134 19.7685 0.862725C19.2973 0.664106 18.7897 0.566298 18.2785 0.575591Z" fill="#0F2167"/>
</svg>
