<svg width="72" height="49" viewBox="0 0 72 49" fill="none" xmlns="http://www.w3.org/2000/svg">
<path d="M65.0872 17.841V17.8101C65.0872 10.844 57.0994 5.1667 47.2425 5.1667C46.6039 5.1667 45.9692 5.18992 45.35 5.23636C45.4696 4.60689 45.4364 3.95792 45.2533 3.34392C44.6457 1.38956 42.5056 0.0234375 40.0404 0.0234375C39.1515 0.0239383 38.2711 0.196081 37.4474 0.530411C34.1579 1.86944 32.966 6.24257 32.6177 10.5538C32.4087 10.7666 32.2074 10.9795 32.0139 11.2001C31.0925 11.0056 30.1567 10.8865 29.2159 10.844C27.7259 8.36334 25.8025 6.23096 23.6005 6.23096C23.4883 6.23096 23.3799 6.23096 23.2677 6.23096C19.8775 6.55604 17.1105 11.1807 17.2343 13.8085C17.2489 14.1857 17.3329 14.5569 17.482 14.9037C16.1068 16.1461 15.0062 17.6619 14.2505 19.3542C6.44468 21.2196 0.794434 26.6376 0.794434 33.0154C0.794434 40.9335 9.49812 47.3538 20.2297 47.3538C25.4504 47.3538 30.1873 45.8329 33.678 43.3639C37.6719 46.5915 43.1519 48.5845 49.2007 48.5845C61.4145 48.5845 71.314 40.4575 71.314 30.4573C71.314 25.5501 68.934 21.1035 65.0872 17.841Z" fill="#0F2167"/>
</svg>
