<svg width="116" height="32" viewBox="0 0 116 32" fill="none" xmlns="http://www.w3.org/2000/svg">
<path d="M103.122 31.1825C101.492 31.1997 99.875 30.9027 98.3579 30.3078C97.5927 30.0015 96.8633 29.6122 96.183 29.1468C96.1489 29.1886 96.1127 29.2287 96.0746 29.2668C95.5269 29.8771 94.8551 30.3633 94.1043 30.6931C93.3534 31.0228 92.5408 31.1883 91.7208 31.1786C89.3214 31.1786 87.4638 29.9905 86.5195 28.0323C86.3083 28.4485 86.0485 28.8382 85.7455 29.1933C85.1947 29.8278 84.5114 30.3338 83.7438 30.6755C82.9761 31.0172 82.1428 31.1863 81.3027 31.1708C77.7849 31.1708 75.4242 28.6244 75.4242 24.8356V12.6528H75.2577V24.6189C75.2577 26.5346 74.7082 28.1019 73.6207 29.2629C73.0507 29.8656 72.3637 30.3457 71.6018 30.6738C70.8399 31.0019 70.0191 31.1711 69.1895 31.1711C68.36 31.1711 67.5392 31.0019 66.7773 30.6738C66.0154 30.3457 65.3284 29.8656 64.7584 29.2629C63.667 28.0787 63.1175 26.5152 63.1175 24.6189V12.6528H62.1693C61.55 12.6567 60.9325 12.5839 60.3311 12.4361C60.6106 13.1136 60.8043 13.8235 60.9077 14.5491C61.0208 15.4579 61.0725 16.3733 61.0625 17.2891V24.8434C61.1228 26.4591 60.5698 28.0379 59.5145 29.2629C58.9613 29.869 58.2873 30.3525 57.5359 30.6824C56.7846 31.0122 55.9725 31.1811 55.1519 31.1782C54.3313 31.1753 53.5205 31.0006 52.7715 30.6654C52.0225 30.3302 51.352 29.8419 50.8031 29.232C50.4718 28.8564 50.1897 28.4402 49.9633 27.9936C49.7218 28.4802 49.4102 28.9288 49.0383 29.3248C48.1374 30.2751 46.9478 30.901 45.6545 31.1054C44.3611 31.3097 43.0365 31.0811 41.8865 30.4549C41.0229 30.932 40.0519 31.181 39.0653 31.1786C37.8742 31.1708 36.7186 30.7725 35.7757 30.0447C35.5745 30.1414 35.3887 30.2304 35.1759 30.3117C33.7246 30.8997 32.1712 31.1943 30.6054 31.1786C29.033 31.2009 27.4788 30.8396 26.0775 30.1259C25.1944 29.6723 24.3969 29.0686 23.7206 28.3419C22.8007 29.0779 21.7836 29.6835 20.6981 30.1414C18.951 30.8544 17.0779 31.2072 15.1911 31.1786C13.843 31.1885 12.4982 31.047 11.1817 30.7568C9.88565 30.4618 8.64379 29.9656 7.50133 29.2861C6.33205 28.5846 5.28609 27.6955 4.40531 26.6545C3.60072 25.6996 2.923 24.6447 2.38903 23.5159C1.84283 22.3744 1.43612 21.1711 1.17771 19.9323C0.913872 18.6593 0.784162 17.3623 0.790707 16.0623C0.772772 14.0035 1.11595 11.9575 1.80465 10.0173C2.46682 8.18692 3.50274 6.51443 4.84649 5.10623C6.16822 3.7401 7.76409 2.66915 9.52923 1.96377C11.2914 1.25836 13.173 0.899633 15.0711 0.907251C17.3148 0.879546 19.5328 1.38629 21.5418 2.3856C23.3507 3.27053 24.9177 4.58129 26.1084 6.20532C26.5351 6.80321 26.9007 7.44238 27.1998 8.11324C27.3894 8.02423 27.5868 7.93909 27.7841 7.85395C29.5286 7.19331 31.3837 6.87405 33.2486 6.91353C35.5706 6.91353 37.4166 7.21539 38.9298 7.83847C39.4721 8.05926 39.9907 8.33413 40.4778 8.65891C41.0096 8.10241 41.6513 7.6626 42.3622 7.36746C43.0731 7.07231 43.8376 6.92827 44.6071 6.94449C45.6318 6.9348 46.64 7.20223 47.5251 7.7185L47.6025 7.76881C48.918 7.20079 50.3378 6.91471 51.7706 6.92901C53.2757 6.91634 54.7634 7.25281 56.1166 7.912C56.0667 7.59973 56.0421 7.28394 56.0431 6.96771C56.0369 6.16015 56.2069 5.36096 56.541 4.62577C56.8752 3.89058 57.3656 3.23705 57.9781 2.71068C59.1526 1.74234 60.6402 1.23594 62.1616 1.28651H76.1982C76.9259 1.29261 77.6471 1.42351 78.3305 1.67352C79.2334 1.15922 80.2559 0.892234 81.295 0.899511C82.1283 0.883438 82.9552 1.04808 83.7188 1.38212C84.4824 1.71616 85.1646 2.21166 85.7184 2.83452C86.6947 3.99959 87.223 5.47485 87.2084 6.9948C87.603 6.95254 87.9996 6.93187 88.3965 6.93288C89.9995 6.91404 91.5812 7.30148 92.9941 8.05906C93.797 8.49635 94.5237 9.06097 95.1458 9.73091C96.1124 8.90703 97.2116 8.25278 98.3966 7.7959C101.458 6.64516 104.833 6.64516 107.894 7.7959C109.371 8.36965 110.707 9.25397 111.813 10.389C112.919 11.5241 113.768 12.8834 114.302 14.3749C115.365 17.405 115.365 20.7065 114.302 23.7365C113.765 25.2255 112.916 26.5826 111.812 27.7172C110.708 28.8517 109.375 29.7376 107.901 30.3156C106.377 30.9033 104.755 31.1975 103.122 31.1825ZM15.0943 12.1458C14.8472 12.1184 14.5973 12.1578 14.3706 12.2599C14.144 12.362 13.9488 12.5231 13.8056 12.7263C13.4457 13.1868 13.0316 14.1737 13.0316 16.2093C12.9904 17.1304 13.1298 18.0507 13.4418 18.9183C13.5397 19.2233 13.7255 19.4926 13.9759 19.6924C14.2747 19.8652 14.6184 19.9447 14.9627 19.9207C15.3006 19.9468 15.6384 19.8685 15.9302 19.6962C16.2108 19.4521 16.415 19.1323 16.5185 18.7752C16.8045 17.889 17.2347 17.0561 17.7917 16.31C17.9556 16.0979 18.1355 15.8987 18.3297 15.714L18.3026 15.6869C17.6085 14.9906 17.0333 14.1853 16.5998 13.3029C16.4135 12.8974 16.1384 12.539 15.7948 12.2542C15.5758 12.1541 15.3333 12.1166 15.0943 12.1458Z" fill="#0F2167"/>
</svg>
