<svg width="20" height="23" viewBox="0 0 20 23" fill="none" xmlns="http://www.w3.org/2000/svg">
<path d="M16.8049 4.1404H11.9867V19.9765C11.9867 20.8899 11.7842 21.5671 11.3792 22.0083C11.1793 22.226 10.9347 22.3979 10.6622 22.5122C10.3896 22.6264 10.0955 22.6803 9.80018 22.6701C9.50132 22.6798 9.20386 22.625 8.92806 22.5095C8.65225 22.394 8.40457 22.2204 8.20186 22.0006C7.75012 21.427 7.53048 20.7045 7.58653 19.9765V4.1404H2.76835C2.16584 4.189 1.5669 4.01097 1.08876 3.64117C0.912839 3.46718 0.773532 3.25973 0.679049 3.03105C0.584566 2.80237 0.53682 2.55709 0.538623 2.30967C0.540427 2.06225 0.591742 1.81769 0.689548 1.59042C0.787354 1.36314 0.929666 1.15774 1.1081 0.986334C1.58531 0.629975 2.17406 0.455683 2.76835 0.49484H16.8049C17.4157 0.447061 18.0225 0.62772 18.5077 1.00181C18.6914 1.16852 18.8365 1.37335 18.9327 1.60197C19.029 1.83058 19.0741 2.07747 19.065 2.32536C19.075 2.57295 19.0294 2.81963 18.9317 3.04732C18.8339 3.275 18.6864 3.47791 18.5 3.64117C18.0149 4.00902 17.412 4.1866 16.8049 4.1404Z" fill="#3559E0"/>
</svg>
