<svg width="22" height="27" viewBox="0 0 22 27" fill="none" xmlns="http://www.w3.org/2000/svg">
<path d="M18.0629 0.814862C17.5503 0.800867 17.0407 0.897301 16.5686 1.09762C16.0965 1.29795 15.673 1.59747 15.3268 1.97587C14.6249 2.82903 14.2686 3.91451 14.3284 5.01771V9.73527H7.89252V5.03706C7.89252 3.73673 7.54422 2.71504 6.85922 1.96813C6.50926 1.5925 6.08398 1.29493 5.61117 1.09487C5.13836 0.894808 4.62866 0.796757 4.11537 0.807122C3.59536 0.79223 3.07842 0.891596 2.60099 1.09822C2.12356 1.30483 1.69727 1.61367 1.35218 2.00296C0.666272 2.85745 0.320319 3.93526 0.380802 5.02932V22.2161C0.321665 23.3136 0.670392 24.3943 1.35992 25.2502C1.7031 25.6403 2.12776 25.9503 2.60388 26.1582C3.08001 26.3662 3.59598 26.4671 4.11537 26.4538C4.62737 26.4631 5.13558 26.3645 5.60698 26.1644C6.07837 25.9644 6.5024 25.6674 6.85149 25.2928C7.54422 24.5536 7.89252 23.5164 7.89252 22.1968V16.3917H14.3284V22.1968C14.2692 23.2943 14.618 24.3749 15.3075 25.2309C15.6507 25.6209 16.0753 25.9309 16.5514 26.1389C17.0276 26.3469 17.5436 26.4478 18.0629 26.4344C18.575 26.4442 19.0834 26.3458 19.5548 26.1458C20.0263 25.9457 20.4503 25.6485 20.7991 25.2734C21.4918 24.5342 21.8401 23.4971 21.8401 22.1774V5.03706C21.8401 3.73673 21.4957 2.71504 20.8068 1.96813C20.4561 1.5939 20.0306 1.29777 19.5578 1.09906C19.085 0.900349 18.5757 0.803512 18.0629 0.814862Z" fill="#0F2167"/>
</svg>
