<svg width="17" height="23" viewBox="0 0 17 23" fill="none" xmlns="http://www.w3.org/2000/svg">
<path d="M15.5578 9.93003C15.0614 8.79153 14.2385 7.82586 13.1932 7.15522C12.128 6.50208 10.8975 6.16893 9.64823 6.19545C8.63017 6.16193 7.61929 6.37712 6.70315 6.8224C5.83805 7.30402 5.0544 7.91918 4.38114 8.64518V2.45314C4.42031 1.83848 4.24072 1.22979 3.87416 0.734845C3.69561 0.53069 3.47267 0.370132 3.22245 0.265483C2.97224 0.160834 2.70137 0.114872 2.43064 0.131121C2.16529 0.118934 1.90087 0.17015 1.65926 0.280523C1.41765 0.390897 1.20581 0.557252 1.0413 0.765806C0.671092 1.31432 0.495324 1.97105 0.542065 2.63116V20.3559C0.498586 20.977 0.681428 21.5929 1.05678 22.0896C1.22742 22.2839 1.43936 22.4376 1.67708 22.5394C1.9148 22.6412 2.17227 22.6885 2.43064 22.6779C2.69256 22.6851 2.95301 22.6364 3.19459 22.5349C3.43618 22.4335 3.65334 22.2817 3.83159 22.0896C4.23095 21.6009 4.42765 20.9776 4.38114 20.3481V19.9611C4.82619 20.4797 5.1861 20.8667 5.457 21.1221C5.76221 21.4038 6.09401 21.6553 6.44773 21.8729C6.88473 22.1366 7.35804 22.3348 7.85255 22.4612C8.42716 22.6127 9.01916 22.6881 9.61341 22.6856C10.5836 22.6959 11.5434 22.4841 12.4192 22.0664C13.2603 21.6531 13.9961 21.0535 14.5709 20.3133C15.1868 19.516 15.6476 18.6103 15.9293 17.643C16.2522 16.545 16.41 15.405 16.3976 14.2606C16.4358 12.7732 16.1492 11.2953 15.5578 9.93003ZM11.9896 18.2003C11.6821 18.6113 11.2841 18.9459 10.8263 19.1781C10.3686 19.4103 9.8635 19.5339 9.35025 19.5393C8.79887 19.5574 8.25063 19.4497 7.74706 19.2244C7.24349 18.9991 6.79782 18.6621 6.44385 18.239C5.70468 17.3682 5.33703 16.1298 5.33703 14.5121C5.31412 13.5373 5.49059 12.568 5.85561 11.6638C6.15057 10.9328 6.64549 10.2998 7.28365 9.83715C7.88894 9.41415 8.61188 9.19213 9.35025 9.20246C10.0672 9.18263 10.7702 9.40334 11.3472 9.82941C11.9441 10.2907 12.3978 10.9121 12.6553 11.6212C12.9843 12.5044 13.1419 13.4422 13.1196 14.3844C13.1067 16.0408 12.7301 17.3127 11.9896 18.2003Z" fill="white"/>
</svg>
