<svg width="71" height="49" viewBox="0 0 71 49" fill="none" xmlns="http://www.w3.org/2000/svg">
<path d="M64.6858 18.2238V18.189C64.6858 11.2229 56.6942 5.54174 46.8411 5.54174C46.1987 5.54174 45.5679 5.56883 44.9448 5.61527C45.0664 4.98593 45.0332 4.33648 44.848 3.72283C44.2443 1.76846 42.1003 0.402344 39.639 0.402344C38.7489 0.402832 37.8672 0.574965 37.0422 0.909317C33.7682 2.23287 32.5723 6.62147 32.2279 10.9327C32.0189 11.1455 31.8138 11.3584 31.6242 11.579C30.7031 11.3815 29.7672 11.2612 28.8261 11.2191C27.3362 8.74225 25.4128 6.60987 23.2107 6.60987C23.0999 6.60399 22.9888 6.60399 22.8779 6.60987C19.4878 6.93495 16.7168 11.5596 16.8445 14.1835C16.8593 14.5615 16.9419 14.9338 17.0884 15.2826C15.7139 16.5263 14.6145 18.0435 13.8607 19.737C6.05104 21.614 0.393066 27.0165 0.393066 33.3943C0.393066 41.3163 9.09676 47.7328 19.8322 47.7328C25.0529 47.7328 29.7859 46.2157 33.2767 43.7428C37.2705 46.9742 42.7505 48.9673 48.8032 48.9673C61.017 48.9673 70.9165 40.8402 70.9165 30.8401C70.9243 25.929 68.5442 21.4862 64.6858 18.2238Z" fill="#0F2167"/>
</svg>
