<svg width="59" height="28" viewBox="0 0 59 28" fill="none" xmlns="http://www.w3.org/2000/svg">
<path d="M53.7905 27.9884C53.1836 28.0003 52.5814 27.8789 52.0264 27.6328C51.4714 27.3868 50.9772 27.022 50.5784 26.5643C49.7844 25.628 49.3701 24.428 49.4174 23.2012V16.4325C49.4416 15.8255 49.3711 15.2184 49.2084 14.633C49.1246 14.6283 49.0407 14.6283 48.9569 14.633C48.7346 14.6304 48.5178 14.7026 48.3415 14.8381C48.1251 15.0035 47.9612 15.2279 47.8694 15.4844C47.7145 16.3551 47.6561 17.2402 47.6952 18.1237V23.2012C47.7552 24.4552 47.3281 25.6837 46.5033 26.6301C46.0988 27.0681 45.6063 27.4155 45.058 27.6496C44.5098 27.8837 43.9182 27.9992 43.3221 27.9884C42.2797 28.0038 41.2702 27.6235 40.497 26.9242C39.7132 27.6111 38.7063 27.9894 37.6641 27.9884C37.1325 27.9809 36.6077 27.8679 36.1201 27.656C35.6325 27.444 35.1918 27.1374 34.8235 26.7539C34.7513 26.6842 34.6778 26.6107 34.603 26.5333C34.1451 26.7994 33.6707 27.036 33.1827 27.2415C31.9184 27.7493 30.5666 28.0031 29.2043 27.9884C27.8798 28.0099 26.5701 27.7084 25.3884 27.1099C24.2607 26.5361 23.3137 25.6615 22.6523 24.5828L22.5246 24.3622C22.4433 24.4551 22.3582 24.548 22.273 24.637C21.2577 25.6879 20.0364 26.5179 18.6855 27.0751C17.132 27.7069 15.4667 28.0176 13.79 27.9884C12.559 27.9964 11.331 27.8666 10.1289 27.6014C7.80975 27.0935 5.72538 25.8287 4.2039 24.0062C3.48709 23.1513 2.88234 22.2084 2.40434 21.2004C1.91234 20.1692 1.54469 19.0831 1.30912 17.9651C1.07521 16.7956 0.962381 15.605 0.972427 14.4124C0.949119 12.5353 1.25564 10.6687 1.87801 8.89761C2.46786 7.26775 3.39042 5.77847 4.58703 4.52448C5.75921 3.31311 7.17256 2.36121 8.7357 1.73032C10.3139 1.10162 11.9983 0.782353 13.6971 0.789904C15.6958 0.766783 17.6712 1.22051 19.4595 2.11345C21.0446 2.88369 22.4191 4.02711 23.465 5.44555C24.1984 6.43575 24.6949 7.58097 24.9163 8.79312C25.5528 8.31531 26.2505 7.92484 26.9906 7.63211C28.5477 7.0454 30.2033 6.76421 31.8668 6.80392C33.9721 6.80392 35.6362 7.06709 36.9598 7.61276C37.894 7.98274 38.7289 8.56584 39.3979 9.31557C39.7073 8.56307 40.2385 7.92263 40.9209 7.47948C41.6032 7.03634 42.4043 6.8115 43.2176 6.83488C43.9678 6.82954 44.7057 7.02603 45.3539 7.40378C45.6177 7.55571 45.8631 7.73751 46.0853 7.94558C46.1975 7.87979 46.3098 7.82174 46.4181 7.76369C47.6547 7.13586 49.0254 6.81842 50.412 6.83875C51.8027 6.8241 53.1738 7.16655 54.3943 7.83335C55.6242 8.50011 56.6157 9.53359 57.231 10.7901C57.6144 11.5145 57.8685 12.3003 57.9818 13.1121C58.084 13.9491 58.1306 14.7921 58.1211 15.6353V23.2012C58.1743 24.4359 57.7597 25.6452 56.9601 26.5875C56.5637 27.0353 56.0753 27.3923 55.5283 27.634C54.9813 27.8758 54.3885 27.9967 53.7905 27.9884ZM13.7164 8.95566C13.235 8.92688 12.754 9.01786 12.3164 9.22047C11.8788 9.42308 11.4982 9.73099 11.2086 10.1167C10.4811 11.0842 10.0941 12.5819 10.0941 14.5749C10.0527 15.7054 10.2315 16.8331 10.6204 17.8954C10.8386 18.4882 11.233 19 11.7504 19.3622C12.3003 19.6938 12.9355 19.8566 13.5771 19.8304C14.2386 19.8626 14.8932 19.6837 15.4463 19.3196C15.9928 18.8935 16.3976 18.312 16.6073 17.6516C16.8417 16.9192 17.1947 16.2302 17.6522 15.6121C18.0288 15.1349 18.514 14.7546 19.0674 14.5028C19.6207 14.251 20.2262 14.1351 20.8334 14.1647C21.4302 14.1618 22.0209 14.2845 22.5672 14.5246C22.4848 14.2359 22.4367 13.9384 22.424 13.6384C21.6867 13.9339 20.8829 14.023 20.0988 13.8962C19.3147 13.7694 18.58 13.4314 17.9734 12.9186C17.403 12.3362 16.9299 11.6659 16.5725 10.9332C16.2742 10.3057 15.8312 9.75785 15.2799 9.33492C14.8092 9.05309 14.264 8.92084 13.7164 8.95566Z" fill="#231F20"/>
</svg>
