<svg width="72" height="49" viewBox="0 0 72 49" fill="none" xmlns="http://www.w3.org/2000/svg">
<path d="M64.8809 18.0324V18.0015C64.8809 11.0354 56.8932 5.35811 47.0362 5.35811C46.3938 5.35811 45.763 5.38133 45.1399 5.42777C45.2634 4.79857 45.2302 4.14866 45.0432 3.53533C44.4394 1.58096 42.2954 0.214844 39.8341 0.214844C38.944 0.215718 38.0624 0.387837 37.2373 0.721817C33.9633 2.04537 32.7674 6.43397 32.423 10.7452C32.214 10.958 32.0128 11.1709 31.8193 11.3915C30.8979 11.1957 29.9622 11.0753 29.0213 11.0316C27.5313 8.55475 25.6079 6.42236 23.4059 6.42236C23.295 6.41649 23.1839 6.41649 23.073 6.42236C19.6829 6.74745 16.9158 11.3721 17.0397 13.996C17.0538 14.3745 17.1378 14.7471 17.2873 15.0951C15.9121 16.3375 14.8115 17.8534 14.0559 19.5456C6.24616 21.4226 0.619141 26.8251 0.619141 33.2029C0.619141 41.1249 9.31896 47.5453 20.0544 47.5453C25.2751 47.5453 30.0081 46.0243 33.5027 43.5553C37.4927 46.7829 42.9766 48.7759 49.0254 48.7759C61.2392 48.7759 71.1387 40.6489 71.1387 30.6487C71.1194 25.7415 68.7316 21.2949 64.8809 18.0324Z" fill="#0F2167"/>
</svg>
