<svg width="115" height="31" viewBox="0 0 115 31" fill="none" xmlns="http://www.w3.org/2000/svg">
<path d="M102.72 30.584C101.091 30.6002 99.4735 30.3047 97.9556 29.7132C97.1911 29.4054 96.4619 29.0161 95.7806 28.5522L95.6762 28.6722C95.1286 29.2874 94.4558 29.7783 93.7029 30.1121C92.9499 30.4458 92.1343 30.6146 91.3108 30.6072C88.9114 30.6072 87.0537 29.4191 86.1095 27.4609C85.9012 27.8788 85.6412 28.2689 85.3354 28.6219C84.7829 29.2552 84.0978 29.7593 83.3286 30.0984C82.5595 30.4375 81.7252 30.6033 80.8849 30.584C77.3671 30.584 75.0063 28.0375 75.0063 24.2487V12.0582H74.8399V24.0243C74.8399 25.9593 74.2904 27.5073 73.2029 28.6683C72.6332 29.2715 71.9463 29.752 71.1844 30.0804C70.4224 30.4088 69.6014 30.5782 68.7717 30.5782C67.942 30.5782 67.1211 30.4088 66.3591 30.0804C65.5972 29.752 64.9103 29.2715 64.3406 28.6683C63.2492 27.4841 62.6997 25.9206 62.6997 24.0243V12.0582H61.7515C61.1322 12.0621 60.5147 11.9893 59.9132 11.8414C60.1937 12.5187 60.3875 13.2286 60.4899 13.9545C60.6031 14.862 60.6549 15.7761 60.6447 16.6906V24.2487C60.7043 25.8644 60.1514 27.4429 59.0967 28.6683C58.5435 29.2743 57.8695 29.7579 57.1181 30.0877C56.3668 30.4176 55.5547 30.5865 54.7341 30.5836C53.9135 30.5807 53.1027 30.406 52.3537 30.0708C51.6047 29.7356 50.9341 29.2473 50.3852 28.6373C50.0531 28.261 49.7709 27.8435 49.5455 27.3951C49.3031 27.8824 48.9916 28.3321 48.6205 28.7302C47.7196 29.6805 46.53 30.3064 45.2367 30.5108C43.9433 30.7151 42.6187 30.4864 41.4687 29.8603C40.6051 30.3373 39.6341 30.5864 38.6475 30.584C37.4564 30.5762 36.3008 30.1779 35.3579 29.45C35.1567 29.5429 34.9709 29.6319 34.7581 29.7171C33.3062 30.3032 31.7532 30.5978 30.1876 30.584C28.6154 30.6043 27.0617 30.2431 25.6597 29.5313C24.7774 29.0763 23.9802 28.4728 23.3028 27.7472C22.3827 28.482 21.3656 29.0863 20.2803 29.5429C18.5335 30.2572 16.6603 30.6113 14.7733 30.584C13.425 30.5944 12.0799 30.4515 10.7639 30.1583C9.46785 29.8633 8.22599 29.3671 7.08353 28.6877C5.92173 27.9867 4.88353 27.0988 4.01073 26.0599C3.20575 25.1045 2.52681 24.0497 1.99058 22.9213C1.44363 21.7797 1.03566 20.5765 0.77539 19.3377C0.513656 18.0644 0.383968 16.7675 0.388387 15.4677C0.370131 13.4089 0.713318 11.3628 1.40233 9.42267C2.06443 7.59112 3.10033 5.91735 4.44417 4.50774C5.76792 3.14022 7.36295 2.06456 9.1269 1.3498C10.8895 0.646948 12.7712 0.290846 14.6688 0.301022C16.9126 0.271528 19.1311 0.778372 21.1395 1.77937C22.9505 2.66452 24.5181 3.97837 25.7061 5.60683C26.1319 6.20523 26.4975 6.84432 26.7974 7.51475C26.9871 7.42574 27.1844 7.3406 27.3818 7.25933C29.1257 6.59681 30.9812 6.27749 32.8463 6.31891C35.1683 6.31891 37.0143 6.62077 38.5275 7.24385C39.07 7.46249 39.5887 7.7361 40.0755 8.06042C40.608 7.50518 41.25 7.06648 41.9607 6.77205C42.6715 6.47761 43.4356 6.33386 44.2048 6.34987C45.2309 6.33871 46.2407 6.60622 47.1267 7.12387L47.2196 7.17805C48.5353 6.61136 49.9551 6.32661 51.3876 6.34213C52.8909 6.32765 54.3771 6.66145 55.7298 7.31738C55.6798 7.00511 55.6552 6.68932 55.6562 6.37309C55.6469 5.56692 55.8135 4.76841 56.1443 4.03319C56.4752 3.29798 56.9623 2.64374 57.5719 2.11606C58.7455 1.14614 60.2337 0.639524 61.7554 0.691894H75.792C76.5199 0.695736 77.2415 0.826706 77.9244 1.0789C78.8274 0.565113 79.8498 0.298163 80.8888 0.304891C81.7221 0.288561 82.5491 0.45309 83.3128 0.787143C84.0764 1.1212 84.7586 1.61683 85.3122 2.2399C86.2844 3.40003 86.8137 4.86726 86.8061 6.38083C87.1931 6.34213 87.5801 6.32278 87.9942 6.32278C89.5972 6.30394 91.1789 6.69138 92.5917 7.44896C93.396 7.8859 94.124 8.45053 94.7474 9.12081C95.7116 8.29559 96.8097 7.64117 97.9943 7.1858C101.056 6.03753 104.43 6.03753 107.491 7.1858C108.968 7.75955 110.305 8.64387 111.411 9.77892C112.516 10.914 113.365 12.2733 113.9 13.7648C114.963 16.7962 114.963 20.0989 113.9 23.1303C113.358 24.6231 112.506 25.9843 111.4 27.1242C110.298 28.2546 108.969 29.1372 107.499 29.7132C105.975 30.3024 104.353 30.5978 102.72 30.584ZM14.7075 11.5473C14.4599 11.5195 14.2095 11.5591 13.9826 11.662C13.7558 11.7649 13.5609 11.9272 13.4188 12.1317C13.0589 12.5922 12.6448 13.5752 12.6448 15.6147C12.6062 16.5357 12.7455 17.4555 13.055 18.3237C13.1535 18.6284 13.3392 18.8975 13.589 19.0977C13.8864 19.2745 14.2309 19.3555 14.5759 19.3299C14.915 19.3554 15.2538 19.2771 15.5473 19.1055C15.825 18.8597 16.0276 18.5404 16.1317 18.1844C16.4174 17.2974 16.849 16.4643 17.4088 15.7192C17.5703 15.5064 17.7489 15.3071 17.9428 15.1232C17.9348 15.1132 17.9257 15.1042 17.9157 15.0961C17.2226 14.3991 16.6474 13.594 16.2129 12.7122C16.0307 12.3042 15.7549 11.9449 15.408 11.6634C15.19 11.5597 14.9472 11.5194 14.7075 11.5473Z" fill="#0F2167"/>
</svg>
