<svg width="115" height="31" viewBox="0 0 115 31" fill="none" xmlns="http://www.w3.org/2000/svg">
<path d="M102.317 30.9911C100.687 31.0083 99.07 30.7113 97.5529 30.1164C96.7877 29.8101 96.0583 29.4208 95.378 28.9554C95.3431 28.998 95.3083 29.0406 95.2696 29.0793C94.7213 29.6909 94.0484 30.1781 93.296 30.5078C92.5437 30.8376 91.7294 31.0024 90.9081 30.9911C88.5087 30.9911 86.6511 29.8068 85.7068 27.8447C85.4983 28.2625 85.2383 28.6526 84.9328 29.0057C84.3832 29.64 83.7013 30.1461 82.935 30.4884C82.1688 30.8308 81.3368 31.001 80.4977 30.9872C76.9799 30.9872 74.6191 28.4407 74.6191 24.652V12.4614H74.4527V24.4275C74.4527 26.3625 73.9032 27.9105 72.8157 29.0715C72.2457 29.6742 71.5587 30.1543 70.7968 30.4824C70.0349 30.8105 69.2141 30.9797 68.3845 30.9797C67.555 30.9797 66.7342 30.8105 65.9723 30.4824C65.2103 30.1543 64.5234 29.6742 63.9534 29.0715C62.8659 27.9105 62.3125 26.3277 62.3125 24.4275V12.4614H61.3643C60.7477 12.4665 60.1328 12.395 59.5338 12.2485C59.8108 12.9264 60.0019 13.6362 60.1027 14.3616C60.2159 15.2691 60.2677 16.1832 60.2575 17.0977V24.652C60.3178 26.2677 59.7648 27.8465 58.7095 29.0715C58.1563 29.6776 57.4823 30.1611 56.7309 30.4909C55.9796 30.8208 55.1675 30.9897 54.3469 30.9868C53.5263 30.9839 52.7155 30.8092 51.9665 30.474C51.2175 30.1388 50.5469 29.6505 49.998 29.0406C49.6668 28.665 49.3847 28.2488 49.1583 27.8022C48.9168 28.2879 48.6066 28.7363 48.2372 29.1334C47.3357 30.084 46.1454 30.7101 44.8514 30.9145C43.5574 31.1188 42.2321 30.89 41.0815 30.2635C40.2179 30.7406 39.2469 30.9896 38.2603 30.9872C37.0693 30.9789 35.9139 30.5806 34.9707 29.8533C34.7695 29.95 34.5837 30.039 34.3709 30.1203C32.9196 30.7083 31.3662 31.0029 29.8004 30.9872C28.2285 31.0084 26.6749 30.6485 25.2725 29.9384C24.3907 29.4811 23.5936 28.8764 22.9156 28.1505C21.9972 28.8887 20.9798 29.4945 19.8931 29.95C18.146 30.663 16.2729 31.0158 14.3861 30.9872C13.0407 30.9955 11.6986 30.854 10.3845 30.5654C9.08637 30.269 7.84217 29.7729 6.69633 29.0947C5.53901 28.3907 4.50274 27.5047 3.6274 26.4709C2.82212 25.5135 2.14198 24.4575 1.60338 23.3284C1.05702 22.1865 0.649068 20.9834 0.388192 19.7448C0.126512 18.4715 -0.00317455 17.1746 0.0011893 15.8747C-0.0228074 13.8165 0.316505 11.7701 1.00353 9.82976C1.66284 7.99775 2.6976 6.32368 4.0415 4.91482C5.36353 3.54622 6.9591 2.47152 8.72423 1.76075C10.4864 1.05535 12.368 0.696619 14.2661 0.704237C16.5098 0.676086 18.7279 1.18286 20.7368 2.18259C22.5448 3.06532 24.1118 4.37336 25.3034 5.99456C25.7316 6.60104 26.0973 7.24935 26.3948 7.92957C26.5844 7.84056 26.7818 7.75542 26.983 7.67415C28.7252 7.00996 30.5795 6.6893 32.4436 6.72987C34.7656 6.72987 36.6116 7.03173 38.1287 7.6548C38.671 7.87535 39.1897 8.15024 39.6767 8.47525C40.209 7.9195 40.8509 7.4802 41.5616 7.18511C42.2724 6.89002 43.0366 6.74555 43.806 6.76083C44.829 6.75487 45.835 7.02207 46.7201 7.53483L46.8208 7.59675C48.1362 7.02873 49.556 6.74266 50.9888 6.75696C52.495 6.73706 53.9854 7.06692 55.3426 7.72059C55.2925 7.40834 55.2679 7.09254 55.269 6.77631C55.2594 5.97009 55.4259 5.1715 55.7567 4.43625C56.0876 3.70099 56.5749 3.04679 57.1847 2.51928C58.358 1.54828 59.8461 1.04031 61.3682 1.09124H75.3893C76.1183 1.09697 76.8409 1.22788 77.5255 1.47824C78.4272 0.964435 79.4484 0.697459 80.4861 0.704237C81.3197 0.689914 82.1467 0.855332 82.9107 1.18924C83.6746 1.52314 84.3577 2.0177 84.9134 2.63925C85.8871 3.80127 86.4153 5.27195 86.4034 6.78792C86.798 6.74576 87.1946 6.72509 87.5915 6.726C89.1945 6.70716 90.7762 7.0946 92.1891 7.85217C92.9935 8.29052 93.7215 8.85644 94.3447 9.52789C95.309 8.70286 96.4071 8.04846 97.5916 7.59288C99.1004 7.01892 100.703 6.73022 102.317 6.74148C103.948 6.72537 105.567 7.01956 107.089 7.60836C108.566 8.18212 109.902 9.06644 111.008 10.2015C112.114 11.3365 112.963 12.6958 113.497 14.1874C114.56 17.2174 114.56 20.519 113.497 23.549C112.957 25.0436 112.104 26.4062 110.997 27.5467C109.896 28.6768 108.566 29.5583 107.096 30.1319C105.572 30.717 103.95 31.0085 102.317 30.9911ZM14.2932 11.9544C14.0461 11.9274 13.7964 11.967 13.5698 12.0691C13.3432 12.1712 13.148 12.332 13.0045 12.5349C12.6484 12.9954 12.2305 13.9823 12.2305 16.0179C12.1912 16.9389 12.3305 17.8588 12.6407 18.7269C12.74 19.0312 12.9255 19.3001 13.1748 19.501C13.4728 19.6756 13.8171 19.7553 14.1616 19.7293C14.5007 19.7547 14.8395 19.6765 15.133 19.5048C15.4108 19.2591 15.6134 18.9398 15.7174 18.5838C16.0053 17.6977 16.4368 16.8649 16.9945 16.1185C17.157 15.9066 17.3356 15.7073 17.5285 15.5226L17.5053 15.4993C16.8105 14.8014 16.234 13.9949 15.7986 13.1115C15.6152 12.7043 15.3396 12.3453 14.9937 12.0628C14.775 11.9615 14.5322 11.9239 14.2932 11.9544Z" fill="#0F2167"/>
</svg>
