<svg width="17" height="17" viewBox="0 0 17 17" fill="none" xmlns="http://www.w3.org/2000/svg">
<path d="M16.2794 5.07114C15.9306 4.09378 15.3749 3.20328 14.6502 2.46054C13.9255 1.7178 13.0489 1.14034 12.0804 0.767673C9.92911 -0.0215159 7.56753 -0.0215159 5.41623 0.767673C4.4527 1.13348 3.57995 1.70387 2.85813 2.43952C2.14299 3.1778 1.59175 4.05873 1.24047 5.0247C0.85407 6.11373 0.66662 7.26335 0.687054 8.41871C0.672454 9.55536 0.862539 10.6854 1.24821 11.7547C1.59922 12.7302 2.15379 13.6198 2.87509 14.3644C3.59639 15.1091 4.4679 15.6917 5.43171 16.0736C6.48816 16.4854 7.61459 16.6878 8.74831 16.6696C9.8914 16.6879 11.0275 16.4882 12.0959 16.0814C13.0596 15.7086 13.932 15.1332 14.654 14.394C15.379 13.6427 15.9358 12.7456 16.2871 11.7624C17.0352 9.59472 17.0352 7.23884 16.2871 5.07114H16.2794ZM11.6702 12.2616C11.0714 12.9911 10.2242 13.4736 9.29127 13.6164C8.35839 13.7593 7.40561 13.5525 6.61594 13.0357C5.98656 12.5775 5.50495 11.9452 5.23046 11.2167C4.89142 10.3304 4.72714 9.38683 4.74671 8.43806C4.72813 7.47735 4.89502 6.52207 5.23821 5.62456C5.51238 4.89265 5.99885 4.25929 6.63528 3.80564C7.25386 3.38783 7.98652 3.17154 8.73284 3.18644C9.29747 3.16629 9.85872 3.28155 10.3697 3.52257C10.8807 3.76359 11.3266 4.12339 11.6702 4.57191C12.3978 5.49297 12.7615 6.78298 12.7615 8.44193C12.7615 10.1009 12.3978 11.3741 11.6702 12.2616Z" fill="#3559E0"/>
</svg>
