<svg width="115" height="31" viewBox="0 0 115 31" fill="none" xmlns="http://www.w3.org/2000/svg">
<path d="M102.533 30.751C100.905 30.7709 99.2878 30.4793 97.7691 29.8918C97.0046 29.584 96.2754 29.1947 95.5942 28.7308L95.4897 28.8508C94.9454 29.47 94.2732 29.9637 93.5195 30.2977C92.7658 30.6318 91.9486 30.7983 91.1243 30.7858C88.7249 30.7858 86.8673 29.5977 85.923 27.6395C85.4405 28.6048 84.6936 29.4132 83.7692 29.9702C82.8449 30.5273 81.7813 30.8101 80.7023 30.7858C77.1883 30.7858 74.8238 28.2393 74.8238 24.4506V12.2252H74.6573V24.1913C74.6573 26.1263 74.1078 27.6743 73.0203 28.8353C72.462 29.4512 71.7785 29.9408 71.0156 30.2712C70.2528 30.6016 69.4281 30.7651 68.5969 30.751C67.7627 30.7647 66.935 30.6014 66.1685 30.2719C65.4021 29.9423 64.7142 29.454 64.1502 28.8392C63.0627 27.6549 62.5093 26.0915 62.5093 24.1951V12.2252H61.5612C60.9418 12.2288 60.3244 12.156 59.7229 12.0084C60.0024 12.686 60.1962 13.3958 60.2995 14.1215C60.4129 15.0303 60.4646 15.9457 60.4543 16.8614V24.4157C60.5147 26.0315 59.9617 27.6103 58.9063 28.8353C58.3531 29.4413 57.6791 29.9249 56.9278 30.2547C56.1764 30.5846 55.3643 30.7535 54.5438 30.7506C53.7232 30.7477 52.9123 30.573 52.1633 30.2378C51.4143 29.9026 50.7438 29.4143 50.1949 28.8043C49.8641 28.4271 49.5819 28.0097 49.3551 27.5621C49.1142 28.0493 48.8039 28.499 48.434 28.8972C47.5325 29.8478 46.3423 30.4739 45.0482 30.6782C43.7542 30.8826 42.4289 30.6537 41.2784 30.0273C40.4152 30.5056 39.4439 30.7548 38.4571 30.751C37.2662 30.7426 36.1107 30.3444 35.1676 29.617C34.9702 29.7099 34.7806 29.7989 34.5677 29.8841C33.1159 30.4702 31.5629 30.7648 29.9972 30.751C28.4251 30.771 26.8714 30.4098 25.4693 29.6983C24.5883 29.2433 23.7923 28.6397 23.1163 27.9142C22.1958 28.6504 21.1773 29.2548 20.09 29.7099C18.3432 30.4246 16.47 30.7788 14.5829 30.751C13.2359 30.7614 11.8922 30.6186 10.5775 30.3253C9.27994 30.031 8.0367 29.5347 6.89319 28.8547C5.73287 28.1516 4.69498 27.2641 3.82039 26.2269C3.0154 25.2715 2.33647 24.2167 1.80023 23.0883C1.25633 21.9458 0.849723 20.7429 0.588916 19.5047C0.327181 18.2314 0.197494 16.9345 0.201913 15.6346C0.182965 13.5755 0.527519 11.5291 1.21973 9.58967C1.87904 7.75766 2.9138 6.08359 4.2577 4.67473C5.58181 3.30861 7.17682 2.23428 8.94043 1.52066C10.7036 0.820459 12.5853 0.466988 14.4823 0.479626C16.7264 0.446509 18.9461 0.949346 20.9569 1.94637C22.765 2.83072 24.3319 4.14002 25.5235 5.76221C25.9481 6.36069 26.3124 6.99979 26.611 7.67013C26.8045 7.58112 26.998 7.49598 27.1992 7.41471C28.9417 6.75184 30.796 6.4325 32.6598 6.4743C34.9818 6.4743 36.8317 6.77616 38.3449 7.39923C38.8871 7.61848 39.4058 7.89207 39.8929 8.21581C40.428 7.66393 41.0704 7.22746 41.7806 6.93327C42.4907 6.63909 43.2536 6.49343 44.0222 6.50526C45.0478 6.49773 46.0567 6.76499 46.9441 7.27926L47.0408 7.33731C48.3483 6.77511 49.7586 6.49172 51.1818 6.50526C52.688 6.49036 54.1771 6.82554 55.5317 7.48437C55.4837 7.17188 55.4591 6.85624 55.4581 6.54009C55.4491 5.73395 55.6158 4.93553 55.9466 4.20035C56.2774 3.46518 56.7645 2.8109 57.3738 2.28306C58.5478 1.31377 60.0357 0.807239 61.5573 0.858888H75.5939C76.3231 0.862756 77.046 0.993717 77.7301 1.24589C78.6318 0.732085 79.653 0.465108 80.6907 0.471886C81.5247 0.454992 82.3525 0.619249 83.1168 0.953321C83.8812 1.28739 84.5639 1.78333 85.118 2.4069C86.0929 3.5667 86.6213 5.03665 86.608 6.5517C86.995 6.513 87.382 6.49365 87.7961 6.49365C89.3991 6.47481 90.9808 6.86225 92.3937 7.61982C93.198 8.05677 93.926 8.6214 94.5493 9.29167C95.5135 8.46645 96.6116 7.81203 97.7962 7.35666C100.859 6.20953 104.234 6.20953 107.297 7.35666C108.773 7.93132 110.109 8.816 111.214 9.95097C112.319 11.0859 113.167 12.4448 113.702 13.9357C114.765 16.9671 114.765 20.2698 113.702 23.3012C113.16 24.793 112.309 26.1539 111.206 27.295C110.102 28.4279 108.769 29.3131 107.297 29.8918C105.777 30.4754 104.161 30.7669 102.533 30.751ZM14.5094 11.7027C14.2623 11.6749 14.0122 11.7141 13.7854 11.8163C13.5587 11.9184 13.3636 12.0797 13.2207 12.2832C12.8646 12.7437 12.4467 13.7267 12.4467 15.7662C12.4079 16.6872 12.5472 17.607 12.8569 18.4752C12.9568 18.7792 13.1422 19.048 13.391 19.2492C13.6889 19.4246 14.033 19.5055 14.3778 19.4814C14.717 19.5082 15.0561 19.4298 15.3492 19.257C15.627 19.0112 15.8296 18.6919 15.9336 18.3359C16.2209 17.4496 16.6524 16.6167 17.2107 15.8707C17.3724 15.6569 17.5524 15.4575 17.7486 15.2747L17.7176 15.2476C17.0245 14.5506 16.4494 13.7455 16.0148 12.8637C15.824 12.4621 15.5417 12.1109 15.1905 11.8381C14.9803 11.7311 14.7446 11.6843 14.5094 11.7027Z" fill="#0F2167"/>
</svg>
