<svg width="22" height="26" viewBox="0 0 22 26" fill="none" xmlns="http://www.w3.org/2000/svg">
<path d="M17.8552 0.0257913C17.3413 0.0145047 16.8311 0.114493 16.3595 0.3189C15.8879 0.523307 15.4661 0.827295 15.123 1.21002C14.4176 2.06149 14.0596 3.14785 14.1206 4.25186V8.95007H7.6809V4.25186C7.6809 2.95153 7.33259 1.92984 6.64759 1.18293C6.29748 0.807489 5.87218 0.510052 5.3994 0.310007C4.92663 0.109961 4.417 0.0117994 3.90375 0.0219205C3.3834 0.00724293 2.86619 0.107093 2.3887 0.314406C1.91121 0.521719 1.48512 0.831431 1.14056 1.22163C0.455626 2.07664 0.109796 3.15407 0.169176 4.24799V21.4232C0.10944 22.522 0.458181 23.604 1.14829 24.4611C1.49198 24.8506 1.91674 25.1602 2.39274 25.3681C2.86874 25.576 3.38447 25.6772 3.90375 25.6647C4.41581 25.6745 4.92418 25.5761 5.39565 25.376C5.86711 25.176 6.29108 24.8787 6.63986 24.5037C7.33259 23.7607 7.6809 22.7274 7.6809 21.4077V15.6452H14.1168V21.427C14.0581 22.5263 14.4082 23.6084 15.0997 24.465C15.4425 24.8546 15.8665 25.1643 16.3419 25.3722C16.8173 25.5802 17.3326 25.6813 17.8513 25.6686C18.3639 25.6782 18.8728 25.5797 19.3449 25.3797C19.817 25.1797 20.2416 24.8825 20.5913 24.5076C21.3259 23.6492 21.699 22.5394 21.6323 21.4116V4.25186C21.6323 2.95153 21.284 1.92984 20.599 1.18293C20.2483 0.808578 19.8228 0.512122 19.3501 0.312781C18.8774 0.113439 18.3681 0.015663 17.8552 0.0257913Z" fill="#0F2167"/>
</svg>
