<svg width="23" height="27" viewBox="0 0 23 27" fill="none" xmlns="http://www.w3.org/2000/svg">
<path d="M18.4654 0.407672C17.951 0.396339 17.4401 0.496287 16.9679 0.700679C16.4957 0.905071 16.0732 1.20908 15.7293 1.5919C15.0267 2.44469 14.6703 3.53044 14.7308 4.63374V9.33195H8.29499V4.63374C8.29499 3.32954 7.94668 2.31172 7.26169 1.56481C6.91219 1.18859 6.48699 0.89063 6.01408 0.690524C5.54116 0.490418 5.03123 0.392701 4.51784 0.403801C3.99783 0.388909 3.48089 0.488276 3.00346 0.694895C2.52603 0.901514 2.09973 1.21035 1.75464 1.59964C1.06814 2.45531 0.722188 3.53455 0.78327 4.62987V21.805C0.724272 22.9037 1.07293 23.9855 1.76239 24.843C2.10644 25.2318 2.53135 25.5406 3.00733 25.7478C3.48332 25.9551 3.99886 26.0557 4.51784 26.0427C5.02997 26.053 5.53849 25.9548 6.01003 25.7547C6.48156 25.5547 6.90548 25.2571 7.25395 24.8817C7.98961 24.0239 8.36292 22.9137 8.29499 21.7857V16.0271H14.7308V21.8089C14.6711 22.9077 15.0198 23.9898 15.71 24.8469C16.054 25.2357 16.4789 25.5445 16.9549 25.7517C17.4309 25.959 17.9464 26.0596 18.4654 26.0466C18.9775 26.0564 19.4858 25.958 19.9573 25.7579C20.4288 25.5579 20.8527 25.2606 21.2015 24.8856C21.8943 24.1425 22.2426 23.1092 22.2426 21.7896V4.63374C22.2426 3.32954 21.8943 2.31172 21.2093 1.56094C20.8586 1.18671 20.433 0.890584 19.9602 0.691871C19.4875 0.493159 18.9781 0.396322 18.4654 0.407672Z" fill="#0F2167"/>
</svg>
