<svg width="22" height="27" viewBox="0 0 22 27" fill="none" xmlns="http://www.w3.org/2000/svg">
<path d="M17.8761 0.981375C17.364 0.966918 16.8548 1.06316 16.3832 1.26353C15.9117 1.4639 15.489 1.76367 15.1439 2.14238C14.4294 2.99851 14.067 4.09414 14.13 5.20744V9.90178H7.70571V5.20744C7.70571 3.90324 7.35741 2.88543 6.67242 2.13464C6.32246 1.75901 5.89718 1.46144 5.42437 1.26138C4.95156 1.06132 4.44186 0.963269 3.92857 0.973634C3.4071 0.961409 2.8893 1.06391 2.41181 1.2739C1.93433 1.48389 1.50881 1.79623 1.16537 2.18882C0.484611 3.04288 0.140411 4.11678 0.197863 5.20744V22.3826C0.138726 23.4801 0.487453 24.5608 1.17698 25.4167C1.52016 25.8068 1.94482 26.1168 2.42094 26.3248C2.89707 26.5327 3.41304 26.6336 3.93244 26.6203C4.4445 26.63 4.95287 26.5317 5.42433 26.3316C5.8958 26.1316 6.31976 25.8343 6.66855 25.4593C7.36128 24.7201 7.70958 23.6829 7.70958 22.3826V16.5776H14.13V22.3826C14.0719 23.4806 14.422 24.5613 15.1129 25.4167C15.4552 25.8069 15.8791 26.117 16.3547 26.325C16.8302 26.533 17.3457 26.6338 17.8645 26.6203C18.3771 26.6299 18.886 26.5314 19.3581 26.3314C19.8302 26.1314 20.2548 25.8342 20.6045 25.4593C21.3347 24.606 21.7076 23.504 21.6456 22.3826V5.20744C21.6456 3.90324 21.2972 2.88543 20.6122 2.13464C20.2622 1.76178 19.8378 1.46649 19.3665 1.26784C18.8952 1.06919 18.3875 0.971601 17.8761 0.981375Z" fill="#0F2167"/>
</svg>
