<svg width="72" height="50" viewBox="0 0 72 50" fill="none" xmlns="http://www.w3.org/2000/svg">
<path d="M65.2709 18.6506V18.6196C65.2709 11.6536 57.2831 5.97627 47.4262 5.97627C46.7889 5.97627 46.1581 5.99949 45.5337 6.04593C45.6533 5.41646 45.6201 4.76749 45.437 4.15349C44.8294 2.19913 42.6893 0.833008 40.2241 0.833008C39.3348 0.833366 38.4541 1.00688 37.6311 1.34385C34.3532 2.66353 33.1613 7.05601 32.8052 11.3633C32.5962 11.5762 32.3911 11.7891 32.2015 12.0096C31.2787 11.8154 30.3417 11.6963 29.3996 11.6536C27.9096 9.17291 25.9901 7.04053 23.7842 7.04053C23.6758 7.04053 23.5636 7.04053 23.4514 7.04053C20.0728 7.38109 17.3251 12.0058 17.4296 14.6413C17.4443 15.0197 17.5282 15.3922 17.6773 15.7403C16.3013 16.9806 15.2005 18.4953 14.4458 20.187C6.63998 22.0485 0.989746 27.451 0.989746 33.8327C0.989746 41.7508 9.69343 48.1712 20.4289 48.1712C25.6457 48.1712 30.3826 46.6502 33.8734 44.1812C37.8672 47.4088 43.3472 49.4018 49.3999 49.4018C61.6098 49.4018 71.5132 41.2748 71.5132 31.2746C71.5055 26.3636 69.1332 21.9169 65.2709 18.6506Z" fill="#0F2167"/>
</svg>
