<svg width="20" height="27" viewBox="0 0 20 27" fill="none" xmlns="http://www.w3.org/2000/svg">
<path d="M18.9626 11.2837C18.3404 9.87131 17.3161 8.6734 16.0175 7.83933C14.7051 7.03189 13.189 6.61694 11.6483 6.6435C10.3761 6.6105 9.11513 6.88953 7.97562 7.4562L7.91757 7.49103V4.44532C7.96025 3.46792 7.65287 2.50735 7.05069 1.7363C6.72806 1.35677 6.32372 1.05517 5.86798 0.854109C5.41223 0.653044 4.91689 0.557726 4.41907 0.575297C3.91919 0.561532 3.42307 0.665376 2.97068 0.878465C2.51828 1.09155 2.12228 1.40793 1.81455 1.80209C1.22602 2.62277 0.932728 3.61855 0.982481 4.62721V22.3519C0.932431 23.3484 1.25217 24.3283 1.88033 25.1035C2.19547 25.4648 2.5863 25.7524 3.02506 25.9457C3.46382 26.139 3.93975 26.2333 4.41907 26.222C4.89302 26.2291 5.36319 26.1368 5.79918 25.9508C6.23517 25.7648 6.62726 25.4893 6.95007 25.1422C7.02747 25.0571 7.101 24.9719 7.17066 24.8791C7.30998 24.9797 7.45704 25.0764 7.61184 25.1732C8.17994 25.5185 8.79527 25.7792 9.43849 25.9472C10.1439 26.1362 10.8715 26.2299 11.6018 26.2258C12.8066 26.2362 13.9979 25.9715 15.0849 25.4518C16.1427 24.9408 17.0695 24.1941 17.7939 23.2691C18.5295 22.3209 19.0808 21.2432 19.4193 20.0918C19.7854 18.8481 19.9654 17.557 19.9534 16.2605C19.9888 14.5493 19.6507 12.8509 18.9626 11.2837Z" fill="#0F2167"/>
</svg>
