<svg width="115" height="31" viewBox="0 0 115 31" fill="none" xmlns="http://www.w3.org/2000/svg">
<path d="M102.329 30.9666C100.7 30.9839 99.0823 30.6869 97.5653 30.092C96.7998 29.7835 96.0694 29.3943 95.3864 28.931L95.282 29.051C94.7326 29.6623 94.0589 30.1492 93.306 30.4789C92.5531 30.8087 91.7384 30.9736 90.9166 30.9627C88.521 30.9627 86.6595 29.7785 85.7191 27.8203C85.5081 28.2366 85.2483 28.6264 84.9451 28.9813C84.3944 29.617 83.7106 30.1237 82.9421 30.4655C82.1736 30.8072 81.3393 30.9757 80.4985 30.9589C76.9845 30.9589 74.6199 28.4124 74.6199 24.6236V12.4369H74.4535V24.4031C74.4535 26.3187 73.9039 27.8861 72.8203 29.0471C72.2503 29.6498 71.5633 30.1298 70.8014 30.4579C70.0395 30.786 69.2187 30.9553 68.3891 30.9553C67.5596 30.9553 66.7388 30.786 65.9769 30.4579C65.2149 30.1298 64.528 29.6498 63.958 29.0471C62.8666 27.8861 62.3132 26.3032 62.3132 24.4031V12.4369H61.365C60.7471 12.4418 60.131 12.3703 59.5307 12.2241C59.8094 12.9019 60.0031 13.6117 60.1073 14.3371C60.2171 15.2449 60.2675 16.1589 60.2582 17.0732V24.6353C60.3203 26.2525 59.7672 27.8331 58.7102 29.0587C58.1567 29.6636 57.4828 30.1461 56.7319 30.4752C55.9809 30.8044 55.1695 30.9729 54.3496 30.97C53.5297 30.967 52.7194 30.7928 51.9708 30.4583C51.2222 30.1238 50.5518 29.6365 50.0026 29.0277C49.671 28.6511 49.3888 28.2336 49.1628 27.7855C48.7999 28.4834 48.3013 29.1018 47.6963 29.6046C47.0914 30.1075 46.3921 30.4845 45.6396 30.7137C44.8871 30.9429 44.0964 31.0197 43.3139 30.9395C42.5313 30.8593 41.7726 30.6238 41.0822 30.2468C40.2203 30.7247 39.2504 30.9738 38.2649 30.9705C37.0722 30.9653 35.9145 30.5667 34.9715 29.8366C34.7741 29.9333 34.5845 30.0223 34.3755 30.1036C32.9242 30.6916 31.3708 30.9862 29.805 30.9705C28.2318 30.9922 26.6769 30.6323 25.2732 29.9217C24.3935 29.4582 23.5992 28.8483 22.9241 28.1183C22.0026 28.8531 20.9843 29.4574 19.8977 29.914C18.1507 30.6274 16.2775 30.9802 14.3907 30.9511C13.0444 30.9647 11.7008 30.8271 10.3852 30.5409C9.08812 30.2452 7.84509 29.7491 6.70093 29.0703C5.54061 28.3673 4.50272 27.4797 3.62813 26.4426C2.82307 25.488 2.14532 24.433 1.61184 23.304C1.06682 22.1619 0.660164 20.9588 0.400526 19.7203C0.136912 18.4473 0.00720499 17.1503 0.0135229 15.8503C-0.0117159 13.7923 0.326285 11.7459 1.01199 9.80532C1.67522 7.9775 2.70957 6.30673 4.04996 4.89812C5.37267 3.52853 6.96972 2.45372 8.73656 1.74405C10.4981 1.03563 12.3798 0.674251 14.2784 0.679797C16.5225 0.651952 18.7409 1.1601 20.7491 2.16202C22.5579 3.04532 24.1251 4.35482 25.3158 5.97786C25.7416 6.57627 26.1072 7.21536 26.4071 7.88579C26.5967 7.79677 26.7941 7.71163 26.9915 7.63036C28.7314 6.96763 30.5829 6.647 32.4443 6.68608C34.7664 6.68608 36.6124 6.98794 38.1255 7.61101C38.6683 7.83073 39.187 8.10566 39.6735 8.43146C40.5822 7.52127 41.7658 6.93647 43.0408 6.76783C44.3157 6.59918 45.6107 6.85613 46.7247 7.49878L46.8215 7.55683C48.1357 6.98923 49.5542 6.70316 50.9856 6.71704C52.4931 6.70253 53.9833 7.03767 55.3394 7.69615C55.288 7.38401 55.2621 7.06821 55.262 6.75187C55.2543 5.94407 55.4235 5.14437 55.7578 4.40894C56.0921 3.67351 56.5833 3.02018 57.197 2.49484C58.3688 1.52378 59.8557 1.01574 61.3767 1.0668H75.4016C76.1306 1.07253 76.8532 1.20344 77.5379 1.4538C78.4395 0.939995 79.4607 0.673019 80.4985 0.679797C81.3323 0.663678 82.1598 0.828285 82.9241 1.16231C83.6883 1.49633 84.3712 1.99185 84.9258 2.61481C85.899 3.77731 86.4284 5.24737 86.4196 6.76348C86.8066 6.72478 87.1936 6.70156 87.6038 6.70156C89.2086 6.68207 90.7921 7.07093 92.2053 7.83161C93.0123 8.2726 93.7417 8.84256 94.3648 9.51894C95.3299 8.695 96.4278 8.04072 97.6117 7.58392C99.1218 7.00992 100.725 6.72123 102.341 6.73252C103.969 6.72035 105.584 7.01714 107.101 7.60714C108.577 8.18244 109.913 9.06729 111.018 10.2021C112.124 11.337 112.973 12.6955 113.51 14.1862C114.573 17.2175 114.573 20.5203 113.51 23.5516C112.961 25.0351 112.108 26.3875 111.006 27.5223C109.904 28.6519 108.574 29.5344 107.105 30.1113C105.581 30.6944 103.961 30.9846 102.329 30.9666ZM14.3017 11.93C14.0551 11.9029 13.8059 11.9424 13.5799 12.0446C13.3539 12.1467 13.1594 12.3076 13.0168 12.5105C12.6569 12.9749 12.2428 13.9579 12.2428 15.9935C12.2032 16.9145 12.3425 17.8345 12.653 18.7025C12.7534 19.0073 12.9403 19.2762 13.191 19.4765C13.489 19.6512 13.8333 19.7308 14.1778 19.7048C14.5152 19.7302 14.8523 19.6533 15.1453 19.4843C15.4232 19.2363 15.6268 18.9161 15.7336 18.5593C16.0153 17.6835 16.4389 16.8598 16.9875 16.1212C17.1513 15.9079 17.3311 15.7074 17.5254 15.5213C17.5145 15.5144 17.5053 15.5051 17.4983 15.4943C16.8046 14.795 16.2318 13.9855 15.8032 13.0987C15.6195 12.6938 15.3455 12.3363 15.0021 12.0538C14.7856 11.9456 14.5422 11.9025 14.3017 11.93Z" fill="#0F2167"/>
</svg>
