<svg width="115" height="31" viewBox="0 0 115 31" fill="none" xmlns="http://www.w3.org/2000/svg">
<path d="M102.728 30.5603C101.1 30.5769 99.4843 30.2814 97.9678 29.6896C97.2017 29.3825 96.4711 28.9933 95.789 28.5286L95.6845 28.6485C95.1373 29.2641 94.4645 29.7553 93.7115 30.0891C92.9585 30.4229 92.1427 30.5915 91.3191 30.5835C88.9197 30.5835 87.0621 29.3954 86.1217 27.4372C85.9107 27.8536 85.6508 28.2433 85.3477 28.5982C84.7972 29.2344 84.1135 29.7417 83.345 30.0841C82.5765 30.4266 81.7422 30.5957 80.901 30.5797C77.387 30.5797 75.0224 28.0332 75.0224 24.2444V12.0345H74.856V24.0006C74.856 25.9356 74.3065 27.4837 73.2229 28.6447C72.6532 29.2478 71.9663 29.7284 71.2043 30.0568C70.4424 30.3852 69.6214 30.5546 68.7917 30.5546C67.962 30.5546 67.141 30.3852 66.3791 30.0568C65.6171 29.7284 64.9302 29.2478 64.3605 28.6447C63.2692 27.4604 62.7158 25.8969 62.7158 24.0006V12.0345H61.7676C61.1495 12.0384 60.5334 11.9656 59.9332 11.8178C60.2098 12.4961 60.4021 13.2057 60.506 13.9308C60.6193 14.8396 60.6711 15.755 60.6608 16.6708V24.2251C60.7211 25.8409 60.1681 27.4197 59.1128 28.6447C58.4791 29.3516 57.6823 29.893 56.7917 30.2218C55.9011 30.5506 54.9436 30.6569 54.0026 30.5314C53.0615 30.4059 52.1654 30.0524 51.3921 29.5017C50.6188 28.951 49.9917 28.2197 49.5654 27.3714C49.2032 28.07 48.7051 28.6893 48.1003 29.1928C47.4955 29.6963 46.7963 30.0739 46.0436 30.3035C45.2909 30.5332 44.4999 30.6101 43.7171 30.53C42.9343 30.4498 42.1753 30.2141 41.4848 29.8366C40.6229 30.3145 39.6529 30.5636 38.6674 30.5603C37.4751 30.5528 36.3182 30.1545 35.374 29.4264C35.1767 29.5232 34.987 29.6083 34.778 29.6934C33.3261 30.2792 31.7731 30.5737 30.2075 30.5603C28.6341 30.5806 27.0791 30.2194 25.6757 29.5077C24.7958 29.0559 24.001 28.4549 23.3266 27.7313C22.4061 28.4675 21.3876 29.0719 20.3003 29.527C18.5541 30.2435 16.6805 30.5977 14.7932 30.5681C13.4408 30.5771 12.0917 30.4317 10.7723 30.1346C9.47531 29.8405 8.23224 29.3456 7.08801 28.6679C5.92756 27.9635 4.88969 27.0746 4.01521 26.0363C3.21023 25.0809 2.53129 24.026 1.99506 22.8977C1.45285 21.7545 1.04632 20.5517 0.78374 19.314C0.522006 18.0408 0.392318 16.7439 0.396737 15.444C0.377789 13.3848 0.722344 11.3385 1.41455 9.39902C2.07588 7.56913 3.11043 5.89672 4.45252 4.48796C5.77614 3.11848 7.37287 2.04257 9.13913 1.33001C10.9001 0.625862 12.7806 0.268436 14.6771 0.277369C16.9222 0.247856 19.1419 0.754684 21.1517 1.75572C22.9601 2.64142 24.527 3.95204 25.7183 5.57543C26.1458 6.17277 26.5115 6.81204 26.8097 7.48336C26.9993 7.39048 27.1967 7.30533 27.394 7.22406C29.1384 6.56305 30.9936 6.24378 32.8585 6.28365C35.1805 6.28365 37.0265 6.58551 38.5397 7.20859C39.0816 7.42857 39.6002 7.70212 40.0877 8.02516C40.9971 7.11617 42.181 6.53249 43.4557 6.36457C44.7305 6.19665 46.0251 6.45386 47.1389 7.09635C47.1699 7.09635 47.2047 7.13119 47.2357 7.15441C48.5521 6.5853 49.9734 6.29919 51.4075 6.31461C52.9138 6.29971 54.4029 6.63489 55.7575 7.29372C55.7094 6.98124 55.6849 6.66559 55.6839 6.34944C55.6767 5.54172 55.8462 4.74219 56.1804 4.00684C56.5147 3.27149 57.0057 2.61809 57.6189 2.09241C58.7781 1.12073 60.2516 0.604783 61.7637 0.641151H75.7887C76.5179 0.645018 77.2408 0.77598 77.925 1.02815C78.8266 0.514347 79.8478 0.247371 80.8855 0.254148C81.7196 0.236995 82.5474 0.401134 83.3118 0.735223C84.0762 1.06931 84.7589 1.56539 85.3128 2.18916C86.2871 3.3493 86.8155 4.81903 86.8028 6.33396C87.1898 6.29526 87.5768 6.27591 87.9909 6.27591C89.5952 6.25709 91.1781 6.64451 92.5924 7.40209C93.4003 7.85126 94.1296 8.42901 94.7518 9.11264C95.716 8.28741 96.8142 7.633 97.9988 7.17762C101.061 6.02698 104.437 6.02698 107.5 7.17762C108.976 7.75336 110.311 8.63837 111.417 9.77315C112.522 10.9079 113.372 12.2662 113.908 13.7567C114.966 16.7889 114.966 20.0899 113.908 23.1221C113.359 24.6148 112.502 25.9755 111.393 27.116C110.29 28.2465 108.959 29.1291 107.488 29.705C105.969 30.2868 104.354 30.577 102.728 30.5603ZM14.7042 11.5275C14.4576 11.4996 14.2081 11.5388 13.9819 11.641C13.7558 11.7432 13.5614 11.9045 13.4194 12.108C13.0595 12.5686 12.626 13.5516 12.626 15.5911C12.5868 16.5121 12.7261 17.432 13.0362 18.3001C13.1378 18.6042 13.3245 18.8729 13.5742 19.0741C13.8717 19.2466 14.214 19.3262 14.5572 19.3024C14.8963 19.3291 15.2355 19.2508 15.5285 19.078C15.8065 18.8316 16.0102 18.5126 16.1168 18.1569C16.4012 17.2701 16.8316 16.4369 17.39 15.6917C17.5529 15.4788 17.7328 15.2795 17.928 15.0957L17.897 15.0686C17.2035 14.3754 16.6271 13.5742 16.1903 12.6963C16.0062 12.2905 15.7322 11.9319 15.3892 11.6475C15.1758 11.5468 14.9392 11.5054 14.7042 11.5275Z" fill="#0F2167"/>
</svg>
