<svg width="70" height="48" viewBox="0 0 70 48" fill="none" xmlns="http://www.w3.org/2000/svg">
<path d="M63.5888 18.4092L63.314 18.146V17.8016C63.314 11.2574 55.6552 5.9322 46.2433 5.9322C45.6396 5.9322 45.0204 5.95542 44.4051 6.00186L43.4027 6.07539L43.5885 5.08466C43.6849 4.5788 43.6583 4.05721 43.5111 3.56374C43.0041 1.93446 41.1659 0.773454 39.0412 0.773454C38.2451 0.771588 37.4563 0.925405 36.7192 1.22625C33.658 2.46079 32.675 7.00033 32.3848 10.5917L32.3654 10.8742L32.1642 11.0755C31.9475 11.2961 31.7578 11.4973 31.5953 11.6831L31.2973 12.0314L30.8523 11.9346C29.9717 11.7474 29.0773 11.6322 28.1781 11.5902H27.764L27.5666 11.2225C26.4017 9.28751 24.5983 6.9655 22.613 6.9655C22.524 6.9655 22.4388 6.9655 22.3537 6.9655C19.4473 7.24414 16.9086 11.3889 17.0169 13.7342C17.0225 14.0279 17.0829 14.3179 17.1949 14.5894L17.4155 15.0964L17.0053 15.4834C15.7091 16.6506 14.6727 18.0772 13.9635 19.6708L13.8087 20.023L13.4217 20.112L12.369 20.379L12.1832 19.605C12.073 19.1036 11.8343 18.6395 11.4905 18.2582C11.2118 17.9619 10.8736 17.7277 10.4982 17.5709C10.1227 17.4142 9.71841 17.3385 9.31169 17.3488C8.9025 17.3361 8.49548 17.413 8.11913 17.5741C7.74277 17.7352 7.40616 17.9766 7.13286 18.2815C6.57467 18.9979 6.29921 19.8945 6.35886 20.8008V23.177L6.04151 23.4092C2.51205 25.9751 0.56543 29.3768 0.56543 32.9914C0.56543 40.4683 8.94017 46.5559 19.2306 46.5559C24.1068 46.5559 28.7199 45.1897 32.23 42.6858L32.7099 42.3491L33.1627 42.7361C37.1914 45.9947 42.532 47.7672 48.2016 47.7672C59.9665 47.7672 69.5409 39.9846 69.5409 30.414C69.5525 25.9286 67.4356 21.6716 63.5888 18.4092Z" fill="#3559E0"/>
</svg>
