<svg width="23" height="27" viewBox="0 0 23 27" fill="none" xmlns="http://www.w3.org/2000/svg">
<path d="M18.2702 0.599057C17.7558 0.587723 17.245 0.687671 16.7727 0.892063C16.3005 1.09646 15.878 1.40046 15.5341 1.78328C14.829 2.6377 14.4724 3.72684 14.5357 4.83286V9.52334H8.0998V4.83286C8.0998 3.52867 7.75149 2.51085 7.0665 1.76006C6.71595 1.38413 6.29002 1.08641 5.81653 0.886346C5.34305 0.686283 4.83269 0.588388 4.31879 0.599057C3.79939 0.58447 3.28311 0.683993 2.80635 0.890611C2.32959 1.09723 1.90396 1.40591 1.55946 1.79489C0.869748 2.65204 0.522271 3.73443 0.584205 4.83286V22.008C0.527029 23.1071 0.877003 24.1887 1.56719 25.046C1.91065 25.4345 2.33491 25.7431 2.81023 25.9504C3.28554 26.1576 3.80042 26.2584 4.31879 26.2457C4.83153 26.2563 5.34071 26.1583 5.81292 25.9582C6.28513 25.7581 6.70969 25.4604 7.05876 25.0847C7.7937 24.2265 8.16691 23.1166 8.0998 21.9887V16.1836H14.5357V21.9887C14.4759 23.0875 14.8247 24.1695 15.5148 25.0267C15.8588 25.4154 16.2837 25.7242 16.7597 25.9315C17.2357 26.1387 17.7512 26.2394 18.2702 26.2264C18.7824 26.2366 19.2909 26.1385 19.7624 25.9384C20.2339 25.7383 20.6579 25.4408 21.0063 25.0654C21.7413 24.2072 22.1145 23.0972 22.0474 21.9693V4.83286C22.0474 3.52867 21.6991 2.51085 21.0141 1.76006C20.6641 1.38443 20.2388 1.08686 19.766 0.886802C19.2932 0.686741 18.7835 0.588692 18.2702 0.599057Z" fill="#0F2167"/>
</svg>
