<svg width="23" height="27" viewBox="0 0 23 27" fill="none" xmlns="http://www.w3.org/2000/svg">
<path d="M18.4739 0.384087C17.9595 0.374283 17.449 0.475714 16.9775 0.68144C16.5059 0.887165 16.0844 1.19233 15.7416 1.57606C15.0395 2.4261 14.6831 3.50927 14.7432 4.61016V9.31611H8.30345V4.61016C8.30345 3.30596 7.95903 2.28814 7.27404 1.54123C6.92318 1.16568 6.49719 0.868218 6.02378 0.668186C5.55037 0.468153 5.04015 0.370036 4.52632 0.380218C4.00642 0.366119 3.48971 0.465845 3.0124 0.672412C2.53509 0.878979 2.10871 1.18739 1.76311 1.57606C1.08491 2.4367 0.746154 3.51633 0.811091 4.61016V21.7853C0.750585 22.8849 1.10094 23.9676 1.79408 24.8233C2.13684 25.2129 2.56086 25.5226 3.03627 25.7305C3.51168 25.9385 4.02692 26.0396 4.54566 26.0269C5.05824 26.0362 5.56705 25.9377 6.03909 25.7377C6.51112 25.5376 6.93582 25.2406 7.28565 24.8659C7.97451 24.1228 8.32281 23.0895 8.32281 21.7698V16.0035H14.7432V21.7853C14.6845 22.8846 15.0347 23.9667 15.7262 24.8233C16.0694 25.2123 16.4936 25.5215 16.9688 25.7294C17.4441 25.9373 17.9591 26.0388 18.4778 26.0269C18.9904 26.0365 19.4993 25.938 19.9713 25.738C20.4434 25.538 20.8681 25.2408 21.2177 24.8659C21.952 24.0073 22.3251 22.8976 22.2588 21.7698V4.61016C22.2588 3.30983 21.9105 2.28814 21.2255 1.54123C20.8738 1.16589 20.4471 0.868863 19.973 0.669488C19.4989 0.470113 18.9881 0.372866 18.4739 0.384087Z" fill="#0F2167"/>
</svg>
