<svg width="115" height="31" viewBox="0 0 115 31" fill="none" xmlns="http://www.w3.org/2000/svg">
<path d="M102.74 30.5358C101.111 30.5544 99.4937 30.2587 97.9764 29.6651C97.2111 29.3587 96.4818 28.9694 95.8014 28.5041L95.6931 28.6279C95.1448 29.2396 94.4718 29.7267 93.7195 30.0565C92.9672 30.3862 92.1529 30.551 91.3316 30.5397C88.9321 30.5397 87.0745 29.3516 86.1302 27.3934C85.919 27.8096 85.6592 28.1993 85.3562 28.5544C84.8055 29.1889 84.1221 29.6949 83.3545 30.0366C82.5868 30.3783 81.7536 30.5474 80.9135 30.532C77.3956 30.532 75.0349 27.9855 75.0349 24.1967V12.01H74.8685V23.9761C74.8685 25.9111 74.3189 27.4592 73.2314 28.6202C72.6614 29.2229 71.9745 29.7029 71.2126 30.031C70.4506 30.3591 69.6298 30.5283 68.8003 30.5283C67.9707 30.5283 67.1499 30.3591 66.388 30.031C65.6261 29.7029 64.9391 29.2229 64.3691 28.6202C63.2777 27.4359 62.7282 25.8724 62.7282 23.9761V12.01H61.7917C61.1751 12.0132 60.5605 11.9418 59.9611 11.7972C60.2377 12.4739 60.4288 13.1824 60.53 13.9063C60.6431 14.8151 60.6949 15.7305 60.6848 16.6463V24.2006C60.7452 25.8164 60.1922 27.3952 59.1368 28.6202C58.5836 29.2262 57.9096 29.7097 57.1583 30.0396C56.4069 30.3695 55.5948 30.5384 54.7742 30.5354C53.9537 30.5325 53.1428 30.3579 52.3938 30.0227C51.6448 29.6875 50.9743 29.1992 50.4254 28.5892C50.0942 28.2136 49.812 27.7975 49.5856 27.3508C49.3442 27.8375 49.0325 28.286 48.6607 28.6821C47.7598 29.6323 46.5702 30.2583 45.2768 30.4626C43.9835 30.667 42.6588 30.4383 41.5088 29.8121C40.6452 30.2892 39.6742 30.5383 38.6876 30.5358C37.4965 30.5281 36.3409 30.1297 35.3981 29.4019C35.1968 29.4987 35.0111 29.5877 34.7982 29.6689C33.3469 30.2569 31.7935 30.5516 30.2277 30.5358C28.6553 30.5581 27.1011 30.1968 25.6998 29.4832C24.8168 29.0295 24.0193 28.4258 23.3429 27.6991C22.4231 28.4352 21.406 29.0407 20.3205 29.4987C18.5733 30.2116 16.7002 30.5644 14.8134 30.5358C13.4656 30.5459 12.1208 30.4058 10.8041 30.1179C9.50597 29.8215 8.26176 29.3254 7.11593 28.6473C5.95947 27.942 4.92338 27.0562 4.047 26.0234C3.24082 25.0653 2.56062 24.0079 2.02297 22.8771C1.47649 21.7315 1.06979 20.5245 0.811656 19.2818C0.549922 18.0085 0.420234 16.7117 0.424653 15.4118C0.399487 13.3566 0.736152 11.313 1.41925 9.37453C2.07853 7.54365 3.11332 5.87084 4.45722 4.46347C5.78489 3.09261 7.38725 2.01777 9.1593 1.3094C10.9214 0.603994 12.8031 0.245264 14.7012 0.252882C16.9396 0.227636 19.152 0.734319 21.1564 1.73123C22.9661 2.61485 24.5335 3.92585 25.723 5.55095C26.1497 6.14884 26.5153 6.78801 26.8144 7.45887C27.004 7.36986 27.2014 7.28472 27.3987 7.19958C29.1432 6.53894 30.9983 6.21968 32.8632 6.25916C35.1852 6.25916 37.0312 6.56102 38.5444 7.1841C39.0871 7.40404 39.6058 7.67896 40.0924 8.00454C40.6242 7.44804 41.2659 7.00823 41.9768 6.71309C42.6877 6.41794 43.4522 6.2739 44.2217 6.29012C45.2447 6.28417 46.2507 6.55136 47.1359 7.06413C47.1708 7.08247 47.2044 7.10316 47.2365 7.12605C48.5519 6.55803 49.9718 6.27195 51.4045 6.28625C52.9109 6.2784 54.3986 6.62018 55.7505 7.28472C55.7006 6.97245 55.676 6.65666 55.677 6.34043C55.668 5.52962 55.8366 4.72667 56.1709 3.98793C56.5052 3.24918 56.997 2.59253 57.612 2.06405C58.7833 1.09104 60.2696 0.579113 61.7917 0.624404H75.8282C76.5573 0.628978 77.2801 0.759918 77.9645 1.01141C78.8659 0.497087 79.8873 0.230074 80.9251 0.237401C81.7584 0.221329 82.5853 0.385975 83.3489 0.720012C84.1125 1.05405 84.7947 1.54955 85.3485 2.17241C86.3236 3.33389 86.8531 4.80463 86.8423 6.32108C87.2369 6.27892 87.6336 6.25825 88.0304 6.25916C89.6335 6.24032 91.2152 6.62776 92.628 7.38534C93.4314 7.82359 94.1593 8.38807 94.7836 9.05719C95.7488 8.23326 96.8467 7.57898 98.0306 7.12218C101.092 5.97145 104.467 5.97145 107.528 7.12218C109.005 7.69593 110.341 8.58025 111.447 9.7153C112.553 10.8503 113.402 12.2096 113.936 13.7012C114.999 16.7312 114.999 20.0328 113.936 23.0628C113.396 24.5574 112.543 25.92 111.436 27.0605C110.335 28.1906 109.005 29.0721 107.535 29.6457C106.008 30.2434 104.381 30.5455 102.74 30.5358ZM14.7167 11.503C14.4677 11.4735 14.2154 11.5118 13.9865 11.614C13.7575 11.7162 13.5605 11.8785 13.4163 12.0835C13.0564 12.5441 12.6423 13.5309 12.6423 15.5666C12.6031 16.4876 12.7424 17.4075 13.0525 18.2756C13.1519 18.5799 13.3374 18.8488 13.5866 19.0496C13.8861 19.2246 14.2313 19.3055 14.5773 19.2818C14.9164 19.3073 15.2552 19.229 15.5487 19.0573C15.8213 18.8118 16.0209 18.4957 16.1253 18.144C16.4114 17.2579 16.8416 16.425 17.3986 15.6788C17.5636 15.4677 17.7433 15.2685 17.9365 15.0828L17.9133 15.0596C17.2185 14.3617 16.642 13.5552 16.2066 12.6718C16.0232 12.2646 15.7476 11.9055 15.4017 11.623C15.1884 11.5218 14.9516 11.4803 14.7167 11.503Z" fill="#0F2167"/>
</svg>
