<svg width="113" height="29" viewBox="0 0 113 29" fill="none" xmlns="http://www.w3.org/2000/svg">
<path d="M101.74 28.7617C100.211 28.7785 98.6924 28.5026 97.2666 27.949C96.3193 27.5627 95.4329 27.0413 94.6349 26.401C94.4844 26.6466 94.3108 26.8773 94.1163 27.0899C93.6433 27.6239 93.0598 28.0487 92.4062 28.3347C91.7527 28.6207 91.0447 28.7612 90.3315 28.7463C87.2354 28.7463 85.2308 26.5636 85.2308 23.185V16.3467C85.2308 16.0797 85.2308 15.8552 85.2037 15.6656C85.0856 16.3777 85.0389 17.0998 85.0644 17.8212V23.2005C85.1239 24.6056 84.6637 25.9833 83.7718 27.0705C83.2962 27.6276 82.7015 28.0706 82.0316 28.3667C81.3617 28.6628 80.6338 28.8044 79.9018 28.7811C76.8057 28.7811 74.7972 26.5984 74.7972 23.2199V10.2359H73.0828V22.9761C73.0828 24.6905 72.6029 26.0721 71.6509 27.1054C71.164 27.6388 70.5692 28.0624 69.9059 28.348C69.2426 28.6336 68.5261 28.7746 67.804 28.7617C67.0781 28.7732 66.3579 28.6309 65.6908 28.3441C65.0238 28.0573 64.4251 27.6325 63.934 27.0976C62.982 26.0643 62.4982 24.6789 62.4982 22.9761V10.2359H60.7916C59.4176 10.2943 58.0728 9.8281 57.0299 8.93173C56.5289 8.46359 56.1308 7.8964 55.8607 7.26618C55.5907 6.63595 55.4546 5.95646 55.4611 5.27084C55.4677 4.58523 55.6167 3.90846 55.8988 3.28351C56.1808 2.65856 56.5897 2.09908 57.0996 1.6406C58.1325 0.792345 59.4404 0.351796 60.7761 0.402192H74.8127C75.573 0.406305 76.3247 0.564277 77.0225 0.866595C77.8754 0.294822 78.8828 -0.00228054 79.9095 0.0151891C80.6342 -0.00275906 81.3541 0.138717 82.0181 0.429617C82.6822 0.720516 83.2742 1.15374 83.7524 1.69865C84.6479 2.78459 85.1122 4.16224 85.0566 5.56868V6.22658C85.7018 6.10144 86.3576 6.03923 87.0149 6.04082C88.4882 6.02246 89.9422 6.37797 91.2409 7.07412C92.1999 7.6043 93.034 8.33411 93.6868 9.21424C94.7075 8.18624 95.934 7.3857 97.2859 6.86513C98.7043 6.32462 100.211 6.05296 101.729 6.06404C103.263 6.04892 104.787 6.32604 106.218 6.88062C107.592 7.41445 108.836 8.23736 109.865 9.29363C110.894 10.3499 111.684 11.6149 112.182 13.003C113.183 15.8603 113.183 18.9732 112.182 21.8305C111.68 23.2219 110.888 24.4908 109.86 25.5535C108.835 26.606 107.595 27.4256 106.226 27.9568C104.795 28.5062 103.273 28.7793 101.74 28.7617ZM53.7907 28.7617C53.0741 28.7739 52.3635 28.6295 51.7085 28.3388C51.0534 28.048 50.4697 27.6179 49.9981 27.0783C49.0855 26 48.608 24.62 48.659 23.2083V16.4318C48.659 16.1416 48.659 15.8978 48.6319 15.6927C48.511 16.4877 48.4644 17.2923 48.4926 18.0959V23.2005C48.5553 24.6499 48.0547 26.0673 47.0955 27.1557C46.6189 27.6725 46.0385 28.0828 45.3922 28.3596C44.7459 28.6364 44.0484 28.7734 43.3455 28.7617C42.3353 28.7733 41.3462 28.4733 40.5126 27.9026C39.6781 28.4651 38.694 28.7644 37.6875 28.7617C36.5023 28.753 35.3639 28.2984 34.4986 27.4885C34.1619 27.6627 33.833 27.8175 33.5001 27.9529C32.1484 28.5007 30.7016 28.7756 29.2431 28.7617C27.7951 28.7821 26.3636 28.4515 25.0712 27.7981C24.042 27.2709 23.1451 26.5182 22.4473 25.5961C21.4345 26.5237 20.2659 27.2652 18.9953 27.7865C17.3448 28.4582 15.5757 28.7899 13.794 28.7617C12.5065 28.7755 11.2214 28.6457 9.96265 28.3747C8.74448 28.0972 7.57714 27.631 6.50285 26.9931C5.41501 26.3324 4.44135 25.4999 3.61968 24.5279C2.85978 23.6217 2.21743 22.623 1.70788 21.5558C1.18521 20.4701 0.79539 19.3253 0.546876 18.1463C0.289161 16.9273 0.159457 15.6847 0.159874 14.4388C0.13654 12.4707 0.45877 10.5137 1.1119 8.65696C1.73652 6.92649 2.71444 5.34495 3.98346 4.01293C5.23116 2.72413 6.7355 1.71157 8.39916 1.04075C10.0693 0.373558 11.8523 0.0345505 13.6508 0.0422792C15.7738 0.0133963 17.8729 0.492399 19.7732 1.43936C21.4687 2.26669 22.9386 3.4923 24.0573 5.01139C24.6193 5.78996 25.0615 6.64831 25.3692 7.55787C25.7845 7.32177 26.215 7.11362 26.6579 6.9348C28.3083 6.30938 30.0639 6.00847 31.8283 6.04856C34.0342 6.04856 35.7989 6.33107 37.2154 6.91545C37.9226 7.20216 38.5827 7.59353 39.1736 8.07645C39.2665 7.94874 39.3671 7.82103 39.4716 7.68945C39.9349 7.16629 40.5065 6.75026 41.1467 6.47024C41.7869 6.19022 42.4804 6.05293 43.1791 6.06791C44.2394 6.05616 45.2747 6.39039 46.128 7.01994C47.4455 6.37591 48.8955 6.04984 50.3618 6.06791C51.8872 6.05135 53.3914 6.42573 54.7311 7.15539C56.0999 7.89776 57.2026 9.04919 57.8852 10.4488C58.3068 11.2511 58.5858 12.1206 58.7095 13.0185C58.8162 13.8915 58.8653 14.7706 58.8565 15.6501V23.2005C58.9165 24.6248 58.4369 26.0192 57.5137 27.1054C57.0476 27.6316 56.4742 28.0518 55.8319 28.3376C55.1897 28.6233 54.4936 28.7679 53.7907 28.7617ZM13.7166 9.72895C13.3519 9.70219 12.9864 9.76881 12.6546 9.92251C12.3228 10.0762 12.0357 10.312 11.8203 10.6074C11.1856 11.4202 10.8682 12.7553 10.8682 14.5742C10.8288 15.604 10.9892 16.6317 11.3404 17.6006C11.4973 18.0484 11.7877 18.4374 12.1724 18.7152C12.5982 18.9614 13.086 19.0796 13.5773 19.0557C14.0796 19.0792 14.5766 18.9438 14.9976 18.6687C15.4028 18.3356 15.7026 17.8919 15.8606 17.3916C16.1194 16.585 16.5119 15.8275 17.0216 15.1509C17.3516 14.7212 17.7583 14.3564 18.2213 14.075C17.9421 13.9115 17.6824 13.7168 17.4473 13.4945C16.8163 12.8572 16.2934 12.1212 15.8993 11.3157C15.6543 10.8008 15.2941 10.3493 14.8466 9.99598C14.5055 9.795 14.1116 9.70191 13.7166 9.72895Z" fill="#3559E0"/>
</svg>
