<svg width="16" height="23" viewBox="0 0 16 23" fill="none" xmlns="http://www.w3.org/2000/svg">
<path d="M4.95288 2.59272V8.61447C5.39858 8.08581 5.9052 7.61167 6.46219 7.20192C6.95822 6.85469 7.50894 6.59306 8.09147 6.42791C8.72039 6.24728 9.37216 6.15864 10.0265 6.16475C10.9817 6.14728 11.9257 6.37231 12.7703 6.81878C13.559 7.25511 14.2053 7.90945 14.6318 8.70349C14.9272 9.20472 15.1242 9.7577 15.2123 10.3328C15.3194 11.0189 15.3699 11.7127 15.3633 12.4071V20.1859C15.4126 20.8484 15.2124 21.5055 14.8021 22.028C14.6172 22.2351 14.3888 22.3988 14.1332 22.5072C13.8776 22.6156 13.6012 22.666 13.3237 22.6549C11.9847 22.6549 11.3152 21.8319 11.3152 20.1859V13.3475C11.3697 12.317 11.1717 11.2888 10.7386 10.3521C10.3516 9.65035 9.61755 9.30076 8.53652 9.30334C7.83558 9.2952 7.15053 9.51225 6.58216 9.92255C5.99187 10.3454 5.53846 10.9321 5.27796 11.6099C5.06124 12.2136 4.95288 13.2895 4.95288 14.8375V20.2013C4.99745 20.8579 4.80523 21.5087 4.41108 22.0357C4.22325 22.248 3.99005 22.4153 3.72878 22.5251C3.4675 22.635 3.18485 22.6847 2.90177 22.6704C1.56274 22.6704 0.893223 21.8474 0.893223 20.2013V2.59272C0.843208 1.93313 1.0298 1.27731 1.41955 0.742843C1.60435 0.535072 1.83352 0.371538 2.0901 0.264351C2.34668 0.157165 2.62408 0.109074 2.90177 0.12364C3.18417 0.108992 3.46627 0.157689 3.72743 0.266167C3.98858 0.374645 4.22216 0.540157 4.41108 0.750583C4.80797 1.27917 5.00039 1.93342 4.95288 2.59272Z" fill="#3559E0"/>
</svg>
