<svg width="113" height="28" viewBox="0 0 113 28" fill="none" xmlns="http://www.w3.org/2000/svg">
<path d="M57.2237 10.7899C56.6091 9.53301 55.6174 8.49936 54.387 7.83322C53.1627 7.16583 51.7874 6.82466 50.3931 6.84249C49.0065 6.82216 47.6358 7.1396 46.3993 7.76743L46.0664 7.95319C45.8477 7.74597 45.6063 7.56421 45.3466 7.41139C44.6977 7.03539 43.9603 6.83903 43.2104 6.84249C42.3971 6.81911 41.5959 7.04395 40.9136 7.48709C40.2312 7.93024 39.7 8.57068 39.3906 9.32318C38.7216 8.57345 37.8867 7.99035 36.9525 7.62037C35.629 7.07857 33.9649 6.81153 31.8596 6.81153C30.196 6.77182 28.5405 7.05301 26.9833 7.63972C26.2425 7.931 25.5447 8.32157 24.909 8.80073C24.687 7.58759 24.1906 6.44125 23.4577 5.44928C22.4119 4.03085 21.0374 2.88743 19.4523 2.11719C17.6606 1.22706 15.6824 0.777296 13.6821 0.805254C11.9828 0.7967 10.298 1.11737 8.72068 1.74954C7.15773 2.37899 5.74435 3.32959 4.57201 4.53983C3.3754 5.79382 2.45284 7.2831 1.863 8.91296C1.24535 10.6797 0.941487 12.5408 0.96515 14.4123C0.960928 15.6041 1.07894 16.7933 1.31732 17.9611C1.55408 19.0788 1.92169 20.1647 2.41254 21.1964C2.88968 22.2037 3.4945 23.1454 4.2121 23.9983C4.98407 24.9133 5.89888 25.6974 6.92112 26.3203C7.92647 26.9146 9.01788 27.3493 10.1565 27.6091C11.3586 27.8742 12.5865 28.004 13.8175 27.9961C15.4955 28.0248 17.162 27.7142 18.717 27.0827C20.0677 26.5274 21.2881 25.6971 22.3006 24.6446C22.3857 24.5556 22.4709 24.4627 22.5522 24.3698L22.6799 24.5904C23.3422 25.6694 24.2888 26.5451 25.416 27.1214C26.5987 27.7167 27.9079 28.0168 29.2318 27.9961C30.5941 28.0107 31.946 27.7569 33.2102 27.2491C33.6975 27.0434 34.1718 26.8082 34.6305 26.5448L34.8511 26.7615C35.2196 27.1447 35.6603 27.4511 36.1479 27.663C36.6354 27.8749 37.1601 27.9881 37.6917 27.9961C38.7331 27.9967 39.7395 27.62 40.5246 26.9357C41.2982 27.6339 42.3077 28.0128 43.3497 27.9961C43.9457 28.0068 44.5373 27.8914 45.0856 27.6572C45.6339 27.4231 46.1264 27.0757 46.5308 26.6377C47.3564 25.6918 47.7836 24.4629 47.7228 23.2088V18.112C47.6839 17.2285 47.7423 16.3434 47.897 15.4726C47.9887 15.2162 48.1527 14.9918 48.3691 14.8264C48.5454 14.6909 48.7621 14.6186 48.9844 14.6212C49.0682 14.6163 49.1522 14.6163 49.236 14.6212C49.3984 15.2053 49.4689 15.8112 49.445 16.4169V23.2011C49.3978 24.429 49.812 25.6301 50.606 26.568C51.0105 27.0136 51.5033 27.37 52.0531 27.6146C52.6029 27.8593 53.1977 27.9868 53.7994 27.9889C54.4012 27.9911 54.9968 27.868 55.5484 27.6273C56.1 27.3867 56.5954 27.0338 57.0031 26.5912C57.8023 25.6472 58.2168 24.4369 58.1641 23.2011V15.6468C58.1736 14.8036 58.1271 13.9606 58.0248 13.1235C57.8981 12.3044 57.6269 11.5142 57.2237 10.7899ZM20.8029 14.1723C20.1954 14.1432 19.5897 14.2597 19.0363 14.5121C18.4829 14.7646 17.9979 15.1457 17.6217 15.6236C17.1632 16.2411 16.8102 16.9302 16.5768 17.6631C16.3661 18.322 15.9615 18.902 15.4158 19.3272C14.8705 19.6823 14.2278 19.8582 13.5776 19.8303C12.9382 19.8538 12.3059 19.6897 11.7587 19.3582C11.236 18.9993 10.8362 18.4887 10.6131 17.8953C10.2278 16.8322 10.0517 15.7047 10.0945 14.5748C10.0945 12.5817 10.4815 11.0918 11.213 10.132C11.5025 9.74634 11.8831 9.43843 12.3207 9.23582C12.7583 9.03321 13.2394 8.94223 13.7208 8.97101C14.2639 8.94167 14.8033 9.07652 15.2688 9.35801C15.8182 9.78282 16.2609 10.3301 16.5614 10.9563C16.9188 11.689 17.3918 12.3593 17.9623 12.9417C18.5715 13.4514 19.308 13.7855 20.0928 13.9082C20.8776 14.031 21.681 13.9376 22.4167 13.6383C22.4226 13.936 22.4629 14.2321 22.5367 14.5206C21.99 14.283 21.399 14.1643 20.8029 14.1723ZM111.462 13.2706C111.001 11.9849 110.269 10.8133 109.315 9.83515C108.362 8.85699 107.209 8.09509 105.936 7.60102C103.238 6.59792 100.27 6.59792 97.5726 7.60102C96.3022 8.08871 95.1513 8.84363 94.1979 9.81467C93.9872 10.0309 93.7883 10.2583 93.602 10.4958C92.9625 9.35366 92.0143 8.41479 90.8659 7.78678C89.6763 7.15063 88.3447 6.82704 86.9958 6.84636C86.1267 6.84228 85.2614 6.96216 84.4261 7.20241L84.2636 7.24885V5.59248C84.3187 4.37012 83.922 3.17023 83.149 2.22168C82.3801 1.39605 81.3268 0.892627 80.2014 0.812908C79.076 0.73319 77.9623 1.08311 77.0847 1.79211L76.9105 1.69536C76.2554 1.35816 75.5304 1.17922 74.7936 1.17291H60.7687C59.6179 1.12497 58.4892 1.49934 57.5952 2.22555C57.1673 2.61167 56.8241 3.08226 56.5871 3.60764C56.3502 4.13303 56.2246 4.70182 56.2184 5.27813C56.2123 5.85445 56.3256 6.4258 56.5512 6.95615C56.7768 7.4865 57.1099 7.96434 57.5294 8.35954C58.4294 9.12608 59.5879 9.52054 60.7687 9.4625H63.2648V22.9766C63.2648 24.4782 63.6789 25.6856 64.4955 26.5758C64.9207 27.0197 65.4313 27.3729 65.9967 27.6143C66.562 27.8556 67.1703 27.98 67.785 27.98C68.3997 27.98 69.008 27.8556 69.5734 27.6143C70.1387 27.3729 70.6493 27.0197 71.0745 26.5758C71.8834 25.6973 72.2975 24.4859 72.2975 22.9728V9.4625H74.7936C75.0523 9.46302 75.3108 9.44751 75.5676 9.41606V23.2011C75.5676 26.1539 77.2279 27.9883 79.8982 27.9883C80.5162 28.0077 81.1307 27.8885 81.6965 27.6393C82.2624 27.3902 82.7653 27.0175 83.1684 26.5487C83.9321 25.6047 84.3243 24.4141 84.2713 23.2011V17.8295C84.2331 17.0214 84.2942 16.2117 84.4532 15.4185C84.5462 15.1701 84.7104 14.9547 84.9254 14.7993C85.1015 14.6679 85.3173 14.601 85.5368 14.6096C85.6452 14.6096 85.7226 14.6096 85.7768 14.6096C85.9476 15.163 86.0222 15.7416 85.9974 16.3202V23.2011C85.9974 26.1539 87.6537 27.9883 90.324 27.9883C91.2107 28.0052 92.0799 27.7409 92.8071 27.2334C93.5343 26.7259 94.0821 26.0012 94.3721 25.1632C95.2844 26.0531 96.3626 26.7553 97.5455 27.2298C98.8785 27.7547 100.3 28.0175 101.733 28.0038C103.168 28.0204 104.594 27.767 105.936 27.2569C107.202 26.7601 108.348 26.0003 109.299 25.0277C110.251 24.0419 110.985 22.8671 111.454 21.5795C112.388 18.8926 112.388 15.9691 111.454 13.2822L111.462 13.2706Z" fill="#231F20"/>
</svg>
