<svg width="116" height="32" viewBox="0 0 116 32" fill="none" xmlns="http://www.w3.org/2000/svg">
<path d="M103.13 31.158C101.502 31.1753 99.8858 30.8784 98.3701 30.2834C97.6033 29.9779 96.8726 29.5886 96.1913 29.1224L96.0868 29.2462C95.5375 29.8576 94.8638 30.3445 94.1109 30.6742C93.358 31.0039 92.5433 31.1689 91.7214 31.158C89.322 31.158 87.4644 29.9738 86.524 28.0117C86.3128 28.4279 86.053 28.8176 85.75 29.1727C85.1988 29.8078 84.5148 30.3141 83.7465 30.6558C82.9781 30.9975 82.1441 31.1663 81.3033 31.1503C77.7893 31.1503 75.4248 28.6038 75.4248 24.8151V12.6283H75.2584V24.5945C75.2584 26.5295 74.7088 28.0775 73.6252 29.2385C73.0552 29.8412 72.3682 30.3212 71.6063 30.6493C70.8444 30.9774 70.0236 31.1467 69.194 31.1467C68.3645 31.1467 67.5436 30.9774 66.7817 30.6493C66.0198 30.3212 65.3329 29.8412 64.7628 29.2385C63.6715 28.0775 63.1181 26.4946 63.1181 24.5945V12.6283H62.1661C61.5469 12.6332 60.9295 12.5617 60.3278 12.4155C60.6083 13.0927 60.802 13.8027 60.9044 14.5285C61.0177 15.436 61.0694 16.3501 61.0592 17.2646V24.8189C61.1203 26.4348 60.5673 28.0139 59.5112 29.2385C58.8764 29.9426 58.0794 30.4813 57.1894 30.808C56.2995 31.1346 55.3433 31.2394 54.4037 31.1132C53.4641 30.9871 52.5694 30.6338 51.7971 30.0839C51.0248 29.534 50.3982 28.8041 49.9716 27.9575C49.7288 28.4434 49.4173 28.8917 49.0467 29.2888C48.1452 30.2393 46.9549 30.8655 45.6609 31.0698C44.3668 31.2742 43.0416 31.0453 41.891 30.4188C41.0279 30.8972 40.0565 31.1464 39.0697 31.1425C37.8784 31.1365 36.7222 30.738 35.7802 30.0086C35.5828 30.1054 35.3932 30.1944 35.1842 30.2757C33.7328 30.8633 32.1795 31.1579 30.6137 31.1425C29.0406 31.1642 27.4856 30.8043 26.0819 30.0938C25.2007 29.6374 24.4048 29.0325 23.729 28.3058C22.8086 29.0433 21.79 29.6489 20.7026 30.1054C18.9556 30.8188 17.0824 31.1716 15.1956 31.1425C13.8488 31.1525 12.5052 31.011 11.1901 30.7207C9.893 30.425 8.64997 29.9289 7.50581 29.2501C6.34634 28.5459 5.30863 27.6585 4.43301 26.6224C3.62885 25.6664 2.94998 24.6116 2.41286 23.4838C1.86953 22.341 1.46294 21.1382 1.20154 19.9001C0.939861 18.6268 0.810174 17.33 0.814538 16.0301C0.791908 13.9757 1.1312 11.9334 1.81687 9.99672C2.47915 8.16615 3.51355 6.49266 4.85484 5.08179C6.17688 3.71318 7.77245 2.63848 9.53758 1.92772C11.2994 1.22099 13.1811 0.860945 15.0795 0.867332C17.3249 0.83902 19.5446 1.34718 21.554 2.34955C23.3621 3.2339 24.929 4.54321 26.1206 6.1654C26.5468 6.7629 26.9112 7.40216 27.2081 8.07332C27.4016 7.98431 27.5951 7.89917 27.7964 7.8179C29.5398 7.15331 31.3955 6.83265 33.2608 6.87361C35.5828 6.87361 37.4289 7.17547 38.942 7.79855C39.4848 8.01827 40.0035 8.2932 40.49 8.61899C41.0249 8.0666 41.6672 7.62953 42.3774 7.33469C43.0875 7.03985 43.8505 6.89347 44.6194 6.90457C45.6452 6.89534 46.6545 7.16271 47.5412 7.67858L47.638 7.73663C48.9505 7.17363 50.3663 6.89153 51.7944 6.90844C53.3006 6.89355 54.7897 7.22873 56.1443 7.88756C56.0897 7.57558 56.0586 7.25992 56.0514 6.94327C56.0437 6.13547 56.2129 5.33577 56.5472 4.60034C56.8815 3.86491 57.3727 3.21159 57.9864 2.68624C59.1576 1.7138 60.6446 1.20436 62.1661 1.25433H76.2026C76.9316 1.26007 77.6542 1.39097 78.3389 1.64134C79.2405 1.12753 80.2617 0.860555 81.2995 0.867332C82.135 0.852329 82.9639 1.01937 83.7284 1.35686C84.4929 1.69435 85.1748 2.19419 85.7268 2.82169C86.7023 3.98115 87.2308 5.45133 87.2167 6.96649C87.6113 6.92433 88.008 6.90366 88.4048 6.90457C90.009 6.88626 91.5919 7.27364 93.0063 8.03075C93.8089 8.47007 94.5355 9.0359 95.158 9.70647C96.1224 8.88143 97.2204 8.22703 98.405 7.77146C99.9139 7.19784 101.516 6.90915 103.13 6.92005C104.764 6.90069 106.386 7.19225 107.91 7.7792C109.385 8.35538 110.72 9.23933 111.826 10.3721C112.928 11.5097 113.777 12.8666 114.319 14.3544C115.376 17.3853 115.376 20.6851 114.319 23.716C113.774 25.2089 112.923 26.5709 111.818 27.7137C110.714 28.8446 109.382 29.7273 107.91 30.3027C106.384 30.8851 104.763 31.1753 103.13 31.158ZM15.1065 12.1214C14.86 12.0943 14.6108 12.1339 14.3848 12.236C14.1588 12.3381 13.9643 12.499 13.8217 12.7019C13.4618 13.1624 13.0283 14.1493 13.0283 16.1849C12.9891 17.1059 13.1284 18.0258 13.4386 18.8939C13.5389 19.1987 13.7258 19.4676 13.9765 19.6679C14.2733 19.8423 14.6162 19.9219 14.9595 19.8962C15.2981 19.9219 15.6366 19.845 15.9309 19.6757C16.208 19.4271 16.4115 19.1071 16.5191 18.7507C16.8044 17.8643 17.2347 17.0313 17.7923 16.2855C17.9572 16.0743 18.137 15.8751 18.3303 15.6895L18.2993 15.6624C17.6053 14.9662 17.0301 14.1608 16.5965 13.2785C16.4148 12.8778 16.1434 12.5242 15.8031 12.2452C15.5877 12.1377 15.3458 12.0947 15.1065 12.1214Z" fill="#0F2167"/>
</svg>
