<svg width="23" height="26" viewBox="0 0 23 26" fill="none" xmlns="http://www.w3.org/2000/svg">
<path d="M18.6729 0.188958C18.1602 0.174452 17.6504 0.270654 17.1782 0.471009C16.706 0.671363 16.2826 0.97116 15.9368 1.34997C15.2342 2.20276 14.8778 3.28851 14.9383 4.39181V9.11711H8.50247V4.4189C8.50247 3.11857 8.15416 2.09688 7.46917 1.34997C7.11846 0.97423 6.69251 0.676635 6.21906 0.476588C5.74562 0.27654 5.23531 0.178533 4.72145 0.188958C4.20144 0.174065 3.68449 0.273432 3.20706 0.480051C2.72963 0.68667 2.30335 0.995511 1.95825 1.3848C1.27397 2.24016 0.928225 3.31734 0.986873 4.41116V21.5863C0.928225 22.6856 1.27837 23.7677 1.96986 24.6243C2.31262 25.0139 2.73664 25.3236 3.21206 25.5315C3.68747 25.7395 4.2027 25.8406 4.72145 25.8279C5.23402 25.8372 5.74284 25.7387 6.21487 25.5387C6.6869 25.3386 7.11161 25.0416 7.46143 24.6669C8.19565 23.8083 8.56876 22.6986 8.50247 21.5708V15.8123H14.9383V21.5941C14.8786 22.6929 15.2273 23.7749 15.9174 24.632C16.2611 25.0215 16.6859 25.3311 17.1619 25.539C17.6379 25.7469 18.1536 25.8481 18.6729 25.8356C19.1849 25.8449 19.6931 25.7463 20.1645 25.5463C20.6359 25.3463 21.0599 25.0493 21.409 24.6746C22.1436 23.8162 22.5167 22.7064 22.45 21.5786V4.4189C22.45 3.11857 22.1017 2.09688 21.4167 1.34997C21.0668 0.974332 20.6415 0.676765 20.1687 0.476704C19.6959 0.276644 19.1862 0.178593 18.6729 0.188958Z" fill="#0F2167"/>
</svg>
