<svg width="57" height="28" viewBox="0 0 57 28" fill="none" xmlns="http://www.w3.org/2000/svg">
<path d="M45.7407 27.9883C44.3083 27.9999 42.8869 27.7372 41.5533 27.2143C40.3704 26.7398 39.2922 26.0376 38.3799 25.1477C38.0899 25.9857 37.542 26.7104 36.8148 27.218C36.0876 27.7255 35.2184 27.9897 34.3318 27.9728C31.6615 27.9728 30.0051 26.1384 30.0051 23.1856V16.3473C30.03 15.7687 29.9554 15.1901 29.7845 14.6367C29.7047 14.6314 29.6245 14.6314 29.5446 14.6367C29.3251 14.6281 29.1093 14.695 28.9331 14.8264C28.7215 14.9792 28.5588 15.1903 28.4649 15.434C28.3052 16.2271 28.2441 17.0369 28.283 17.845V23.2011C28.3345 24.4139 27.9424 25.604 27.18 26.5487C26.777 27.0175 26.2741 27.3902 25.7082 27.6393C25.1423 27.8885 24.5278 28.0077 23.9098 27.9883C21.2395 27.9883 19.5793 26.1539 19.5793 23.2011V9.41606C19.3225 9.44751 19.064 9.46302 18.8053 9.4625H16.3091V22.9766C16.3091 24.4898 15.895 25.6857 15.0862 26.5796C14.661 27.0235 14.1504 27.3768 13.585 27.6181C13.0197 27.8595 12.4114 27.9839 11.7967 27.9839C11.182 27.9839 10.5736 27.8595 10.0083 27.6181C9.44297 27.3768 8.93234 27.0235 8.50715 26.5796C7.69057 25.6895 7.27648 24.4821 7.27648 22.9805V9.4625H4.79192C3.61115 9.52054 2.45271 9.12608 1.55271 8.35954C1.13309 7.964 0.799946 7.48583 0.574267 6.95516C0.348589 6.42449 0.23527 5.85283 0.241451 5.27621C0.247632 4.69958 0.373176 4.13048 0.610177 3.60477C0.847178 3.07907 1.1905 2.60814 1.6185 2.22168C2.51392 1.49844 3.64187 1.12567 4.79192 1.17291H18.8285C19.5647 1.17987 20.2893 1.35737 20.9454 1.69149L21.1196 1.79211C21.9972 1.08311 23.1109 0.73319 24.2363 0.812908C25.3617 0.892627 26.415 1.39605 27.1839 2.22168C27.9568 3.17023 28.3536 4.37012 28.2985 5.59248V7.24111L28.461 7.1908C29.2968 6.95349 30.1619 6.83494 31.0307 6.83862C32.3792 6.81794 33.7109 7.1402 34.9007 7.77517C36.048 8.4047 36.9959 9.3432 37.6368 10.4842C37.8222 10.2458 38.0212 10.0184 38.2328 9.80306C39.187 8.83211 40.3376 8.07608 41.6075 7.58554C42.9359 7.08049 44.3467 6.8272 45.7678 6.83862C47.2052 6.82678 48.6317 7.08948 49.9706 7.61263C51.2415 8.10637 52.3917 8.8669 53.3437 9.84294C54.2957 10.819 55.0274 11.9878 55.4893 13.2706C56.4233 15.9562 56.4233 18.8785 55.4893 21.5641C55.0217 22.8525 54.2871 24.0276 53.3337 25.0123C52.3851 25.9874 51.2382 26.7476 49.9706 27.2414C48.621 27.7571 47.1853 28.0106 45.7407 27.9883Z" fill="#231F20"/>
</svg>
