<svg width="15" height="17" viewBox="0 0 15 17" fill="none" xmlns="http://www.w3.org/2000/svg">
<path d="M4.12955 2.4086V2.89622C4.74613 2.03935 5.54599 1.33071 6.47092 0.821888C7.37672 0.367388 8.37955 0.140256 9.39279 0.160114C10.3941 0.144196 11.3828 0.385371 12.2643 0.860588C13.0853 1.30589 13.7459 1.99757 14.1529 2.83817C14.4215 3.33773 14.5973 3.88191 14.6715 4.44423C14.7611 5.1747 14.8012 5.9104 14.7915 6.64628V14.2006C14.84 14.8624 14.6415 15.5188 14.2342 16.0427C14.0536 16.2479 13.8298 16.4106 13.5789 16.519C13.328 16.6274 13.0561 16.6789 12.7829 16.6696C12.5055 16.6782 12.2297 16.625 11.9753 16.5139C11.721 16.4028 11.4945 16.2366 11.3123 16.0272C10.9036 15.5096 10.7022 14.8585 10.7473 14.2006V7.43189C10.7473 6.09673 10.5615 5.07118 10.19 4.36296C9.81849 3.65475 9.07545 3.29871 7.96475 3.29871C7.25317 3.29563 6.5596 3.52229 5.98717 3.945C5.39058 4.39586 4.94191 5.0143 4.69845 5.72134C4.50237 6.33023 4.40303 7.46156 4.40045 9.11535V14.2006C4.45199 14.8676 4.24715 15.5292 3.82769 16.0504C3.63981 16.2533 3.41065 16.4135 3.15564 16.5203C2.90063 16.6271 2.62569 16.678 2.34934 16.6696C2.07622 16.6758 1.80513 16.6214 1.55554 16.5103C1.30595 16.3992 1.08407 16.2342 0.905821 16.0272C0.498801 15.5088 0.297588 14.8583 0.340797 14.2006V2.46665C0.288148 1.84876 0.461404 1.23274 0.828421 0.732878C1.00239 0.541642 1.21642 0.391154 1.45523 0.292149C1.69405 0.193143 1.95177 0.148059 2.21002 0.160114C2.54979 0.155353 2.88438 0.243685 3.17753 0.415536C3.47891 0.600543 3.71968 0.869562 3.87026 1.18954C4.05026 1.57022 4.13904 1.98762 4.12955 2.4086Z" fill="#3559E0"/>
</svg>
