<svg width="115" height="31" viewBox="0 0 115 31" fill="none" xmlns="http://www.w3.org/2000/svg">
<path d="M102.338 30.9423C100.709 30.9586 99.092 30.663 97.5741 30.0716C96.8095 29.7637 96.0803 29.3745 95.3991 28.9106L95.2946 29.0305C94.7451 29.6417 94.0714 30.1284 93.3185 30.4582C92.5657 30.7879 91.751 30.9529 90.9292 30.9423C88.5298 30.9423 86.6722 29.7581 85.7279 27.7999C85.5197 28.2178 85.2596 28.6079 84.9539 28.9609C84.4036 29.5961 83.7204 30.1025 82.9526 30.4442C82.1849 30.786 81.3513 30.9547 80.5111 30.9385C76.9933 30.9385 74.6325 28.3958 74.6325 24.6032V12.4126H74.4661V24.3788C74.4661 26.3138 73.9166 27.8618 72.8291 29.0228C72.2708 29.6358 71.5881 30.1228 70.8266 30.4511C70.0652 30.7794 69.2425 30.9416 68.4134 30.9268C67.5795 30.9413 66.7519 30.7788 65.9854 30.4499C65.2189 30.121 64.5309 29.6333 63.9668 29.0189C62.8793 27.8347 62.3259 26.2712 62.3259 24.3749V12.4126H61.3777C60.7585 12.4175 60.1411 12.346 59.5394 12.1998C59.8195 12.8772 60.0132 13.5871 60.1161 14.3128C60.2293 15.2203 60.2811 16.1344 60.2709 17.0489V24.6032C60.3318 26.2203 59.7788 27.8005 58.7229 29.0267C58.169 29.6316 57.4948 30.1142 56.7436 30.4434C55.9923 30.7725 55.1805 30.9411 54.3603 30.9382C53.5401 30.9352 52.7295 30.7609 51.9806 30.4264C51.2317 30.0919 50.561 29.6046 50.0114 28.9957C49.6793 28.6194 49.3971 28.2019 49.1717 27.7534C48.8091 28.4512 48.3109 29.0696 47.7062 29.5723C47.1016 30.0751 46.4027 30.4522 45.6505 30.6814C44.8983 30.9106 44.1079 30.9874 43.3257 30.9073C42.5434 30.8272 41.785 30.5917 41.0949 30.2148C40.2313 30.6918 39.2603 30.9409 38.2737 30.9385C37.0828 30.9335 35.9267 30.5364 34.9841 29.8084C34.7829 29.9013 34.5971 29.9903 34.3843 30.0754C32.9322 30.6603 31.3792 30.9535 29.8138 30.9385C28.2419 30.9601 26.6882 30.6002 25.2859 29.8897C24.4036 29.4347 23.6064 28.8312 22.929 28.1056C22.0089 28.8404 20.9918 29.4447 19.9065 29.9013C18.1594 30.6143 16.2863 30.967 14.3995 30.9385C13.0522 30.9462 11.7084 30.8008 10.394 30.505C9.09792 30.21 7.85606 29.7138 6.7136 29.0344C5.5518 28.3334 4.5136 27.4456 3.6408 26.4067C2.83449 25.4522 2.15544 24.3972 1.62065 23.2681C1.07562 22.126 0.668967 20.9229 0.409328 19.6844C0.147648 18.4111 0.0179616 17.1143 0.0223255 15.8144C0.00217911 13.7596 0.344094 11.7172 1.0324 9.78102C1.69171 7.94901 2.72647 6.27494 4.07037 4.86609C5.39345 3.49873 6.98874 2.42421 8.7531 1.71202C10.5152 1.00661 12.3969 0.647882 14.295 0.6555C16.5405 0.62614 18.7604 1.13436 20.7695 2.13772C22.5793 3.01959 24.1467 4.32935 25.3362 5.95357C25.762 6.55197 26.1276 7.19106 26.4275 7.86149C26.6171 7.77248 26.8145 7.68734 27.0119 7.60607C28.7555 6.94223 30.611 6.62159 32.4764 6.66178C34.7984 6.66178 36.6444 6.96751 38.1576 7.59059C38.7001 7.80923 39.2188 8.08285 39.7056 8.40716C40.2402 7.8544 40.8824 7.41709 41.5926 7.12222C42.3029 6.82735 43.066 6.68118 43.8349 6.69274C44.8607 6.68351 45.87 6.95088 46.7568 7.46675L46.8496 7.5248C48.1651 6.95678 49.5849 6.6707 51.0177 6.685C52.5177 6.67774 53.9994 7.01538 55.3482 7.67186C55.2981 7.35961 55.2735 7.04381 55.2747 6.72757C55.2675 5.91985 55.4369 5.12032 55.7712 4.38497C56.1054 3.64962 56.5964 2.99623 57.2097 2.47054C58.3831 1.49986 59.8711 0.991936 61.3932 1.0425H75.4298C76.1589 1.04645 76.8818 1.17741 77.566 1.42951C78.4677 0.91587 79.4889 0.648906 80.5266 0.6555C81.362 0.641795 82.1904 0.809423 82.9547 1.14683C83.7191 1.48423 84.4011 1.98338 84.9539 2.60986C85.9279 3.77018 86.4562 5.23979 86.4439 6.75466C86.8309 6.71596 87.2179 6.69274 87.632 6.69274C89.2356 6.67323 90.8177 7.06212 92.2296 7.82279C93.0338 8.25973 93.7618 8.82436 94.3852 9.49464C95.3503 8.67071 96.4482 8.01642 97.6321 7.55963C99.1409 6.98566 100.743 6.69696 102.357 6.70822C103.989 6.69212 105.608 6.9863 107.129 7.57511C108.606 8.14886 109.943 9.03318 111.048 10.1682C112.154 11.3033 113.003 12.6626 113.538 14.1541C114.601 17.1855 114.601 20.4883 113.538 23.5196C112.996 25.0115 112.145 26.3723 111.042 27.5135C109.938 28.6431 108.607 29.5256 107.137 30.1025C105.605 30.6838 103.976 30.9688 102.338 30.9423ZM14.3143 11.9057C14.0675 11.879 13.8179 11.9192 13.5919 12.022C13.3659 12.1248 13.1716 12.2864 13.0295 12.49C12.6734 12.9506 12.2555 13.9336 12.2555 15.9731C12.2065 16.9003 12.3379 17.8282 12.6425 18.7053C12.741 19.01 12.9267 19.2791 13.1765 19.4793C13.4746 19.654 13.8189 19.7336 14.1634 19.7076C14.5009 19.7347 14.8385 19.6577 15.1309 19.487C15.4217 19.2403 15.6331 18.9131 15.7385 18.5466C16.0256 17.6622 16.4558 16.8307 17.0117 16.0853C17.1757 15.8733 17.3556 15.6741 17.5497 15.4893L17.5226 15.4622C16.8249 14.7699 16.2446 13.9686 15.8043 13.0899C15.6221 12.6819 15.3463 12.3226 14.9993 12.0411C14.7881 11.933 14.5508 11.8861 14.3143 11.9057Z" fill="#0F2167"/>
</svg>
