<svg width="16" height="17" viewBox="0 0 16 17" fill="none" xmlns="http://www.w3.org/2000/svg">
<path d="M15.2124 13.4189C14.9661 12.6465 14.8357 11.8418 14.8254 11.0311C14.8254 10.2184 14.8254 9.48311 14.8487 8.81747C14.8719 8.15183 14.8487 7.34299 14.8487 6.39096C14.8963 5.15127 14.6814 3.91551 14.2178 2.76475C13.7838 1.84087 13.0062 1.12297 12.0506 0.763945C11.0341 0.340822 9.63187 0.130551 7.84391 0.133131C6.48565 0.094864 5.13261 0.316869 3.85779 0.787166C2.93438 1.11932 2.11755 1.69418 1.4932 2.45128C1.0126 3.04092 0.740477 3.77295 0.719199 4.53335C0.71264 4.74555 0.753735 4.95652 0.839461 5.15075C0.925188 5.34497 1.05336 5.5175 1.21456 5.65566C1.53954 5.9468 1.96253 6.10439 2.39879 6.09684C2.57361 6.12111 2.75156 6.10888 2.92141 6.06092C3.09127 6.01296 3.24934 5.93032 3.38565 5.8182C3.66316 5.45393 3.92152 5.07544 4.15965 4.68428C4.49082 4.14717 4.95115 3.70147 5.49868 3.38782C6.22674 3.05954 7.02338 2.91217 7.8207 2.95825C9.0204 2.95825 9.81118 3.20851 10.193 3.70903C10.58 4.20827 10.789 4.99388 10.8393 6.06588C9.98791 6.32388 9.19713 6.53415 8.46699 6.69669C7.73684 6.85924 6.87512 7.05016 5.88181 7.26946C4.86013 7.47844 4.22157 7.61002 3.9468 7.65646C2.8374 7.85912 1.82178 8.41099 1.04815 9.23156C0.35519 10.0181 -0.0103894 11.04 0.0264642 12.0876C0.0221459 12.8958 0.243279 13.6892 0.665019 14.3787C1.10631 15.0938 1.73729 15.6726 2.4878 16.0505C3.33868 16.4764 4.28035 16.6889 5.23165 16.6698C6.29142 16.6859 7.34383 16.4912 8.32767 16.097C9.34879 15.6525 10.3066 15.0747 11.176 14.3787C11.5368 14.9973 11.9722 15.5692 12.4725 16.0815C12.7894 16.4318 13.2315 16.6432 13.7031 16.6698C14.1956 16.6706 14.6706 16.487 15.0344 16.155C15.2113 16.0214 15.356 15.8499 15.4578 15.653C15.5596 15.4561 15.6159 15.2388 15.6227 15.0173C15.546 14.4708 15.4084 13.9347 15.2124 13.4189ZM10.8625 9.0845C10.8625 10.4932 10.6794 11.5046 10.313 12.1186C9.95743 12.7068 9.43838 13.1787 8.81916 13.477C8.13491 13.8298 7.37538 14.0118 6.60551 14.0072C5.93592 14.0363 5.28114 13.8046 4.77886 13.3609C4.5557 13.165 4.37756 12.9231 4.25665 12.6519C4.13574 12.3807 4.07493 12.0866 4.07838 11.7897C4.06416 11.5282 4.11015 11.267 4.2128 11.0261C4.31546 10.7852 4.47205 10.5711 4.67049 10.4003C5.0311 10.0854 5.45853 9.85645 5.92051 9.7308C6.35396 9.61986 7.13957 9.44183 8.27736 9.19673C9.15293 9.02263 10.0164 8.79254 10.8625 8.50787V9.0845Z" fill="#3559E0"/>
</svg>
