<svg width="72" height="49" viewBox="0 0 72 49" fill="none" xmlns="http://www.w3.org/2000/svg">
<path d="M65.0882 17.8021C65.0882 10.8361 57.0966 5.15874 47.2397 5.15874C46.5998 5.15874 45.969 5.18196 45.3472 5.2284C45.4688 4.59907 45.4356 3.94962 45.2505 3.33596C44.6467 1.36612 42.5028 8.88329e-09 40.0414 8.88329e-09C39.1509 -4.53311e-05 38.2688 0.17347 37.4446 0.510843C34.1706 1.83052 32.9747 6.223 32.6303 10.5303C32.4213 10.7432 32.2162 10.9599 32.0266 11.1805C31.1055 10.9831 30.1696 10.8627 29.2286 10.8206C27.7347 8.3399 25.8152 6.19204 23.6132 6.19204C23.5009 6.19204 23.3887 6.19204 23.2765 6.19204C19.8863 6.51712 17.1193 11.1418 17.2431 13.7696C17.26 14.1477 17.3439 14.5198 17.4908 14.8686C16.1108 16.118 15.0108 17.6453 14.2632 19.3501C6.45346 21.2116 0.803223 26.6142 0.803223 32.9958C0.803223 40.9139 9.50692 47.3343 20.2424 47.3343C25.463 47.3343 30.1961 45.8134 33.6868 43.3443C37.6807 46.5719 43.1607 48.565 49.2134 48.565C61.4272 48.565 71.3267 40.4379 71.3267 30.4378C71.3267 25.5422 68.9466 21.0839 65.0882 17.8021Z" fill="#0F2167"/>
</svg>
