<svg width="115" height="31" viewBox="0 0 115 31" fill="none" xmlns="http://www.w3.org/2000/svg">
<path d="M102.935 30.3485C101.306 30.3657 99.6885 30.0688 98.1715 29.4739C97.4062 29.1676 96.6769 28.7782 95.9965 28.3129L95.892 28.4367C95.3411 29.0461 94.6671 29.5317 93.9145 29.8612C93.162 30.1908 92.3481 30.3569 91.5266 30.3485C89.1272 30.3485 87.2696 29.1604 86.3253 27.2022C86.1168 27.62 85.8568 28.01 85.5513 28.3632C85.0005 28.9978 84.3172 29.5037 83.5495 29.8454C82.7819 30.1871 81.9486 30.3562 81.1085 30.3408C77.5907 30.3408 75.2299 27.7943 75.2299 24.0055V11.8188H75.0635V23.785C75.0635 25.72 74.514 27.268 73.4265 28.429C72.8565 29.0317 72.1695 29.5117 71.4076 29.8398C70.6457 30.1679 69.8249 30.3371 68.9953 30.3371C68.1658 30.3371 67.345 30.1679 66.583 29.8398C65.8211 29.5117 65.1342 29.0317 64.5641 28.429C63.4767 27.2448 62.9233 25.6813 62.9233 23.785V11.8188H61.9751C61.356 11.8217 60.7389 11.7502 60.1368 11.606C60.4173 12.2832 60.6111 12.9932 60.7135 13.719C60.8267 14.6265 60.8785 15.5406 60.8683 16.4551V24.0094C60.9286 25.6252 60.3756 27.204 59.3203 28.429C58.767 29.035 58.0931 29.5185 57.3417 29.8484C56.5904 30.1783 55.7783 30.3472 54.9577 30.3443C54.1371 30.3413 53.3262 30.1667 52.5773 29.8315C51.8283 29.4963 51.1577 29.008 50.6088 28.398C50.2789 28.0214 49.9968 27.6055 49.769 27.1596C49.5276 27.6453 49.2174 28.0937 48.848 28.4909C47.9465 29.4414 46.7562 30.0676 45.4622 30.2719C44.1681 30.4763 42.8429 30.2474 41.6923 29.6209C40.8287 30.098 39.8577 30.3471 38.871 30.3446C37.6801 30.3363 36.5246 29.938 35.5815 29.2107C35.3803 29.3075 35.1945 29.3965 34.9817 29.4778C33.5304 30.0658 31.977 30.3604 30.4112 30.3446C28.8393 30.3658 27.2857 30.006 25.8832 29.2959C25.0015 28.8385 24.2044 28.2339 23.5264 27.5079C22.608 28.2462 21.5906 28.8519 20.5039 29.3075C18.7568 30.0205 16.8836 30.3732 14.9969 30.3446C13.6501 30.3546 12.3065 30.2131 10.9914 29.9228C9.69387 29.6285 8.45063 29.1323 7.30712 28.4522C6.14519 27.7498 5.10701 26.8607 4.23432 25.8206C3.42851 24.8672 2.74948 23.8136 2.21417 22.6859C1.6714 21.5429 1.26484 20.3401 1.00285 19.1022C0.741358 17.8289 0.611673 16.5321 0.615845 15.2322C0.592766 13.1737 0.933399 11.1273 1.62205 9.18721C2.28012 7.35461 3.31503 5.68029 4.66002 4.27228C5.98206 2.90367 7.57762 1.82897 9.34275 1.11821C11.1049 0.412807 12.9866 0.0540748 14.8846 0.0616928C17.1295 0.0339663 19.3488 0.540701 21.3592 1.54004C23.1663 2.42601 24.7319 3.73664 25.9219 5.35976C26.3486 5.95765 26.7142 6.59683 27.0133 7.26768C27.2029 7.17867 27.4003 7.09353 27.5977 7.01226C29.3413 6.34843 31.1968 6.02779 33.0621 6.06797C35.3842 6.06797 37.234 6.36984 38.7472 6.99291C39.2896 7.21346 39.8082 7.48834 40.2952 7.81335C40.8301 7.26096 41.4724 6.82389 42.1826 6.52905C42.8927 6.23421 43.6557 6.08783 44.4245 6.09893C45.4503 6.0897 46.4597 6.35707 47.3464 6.87294L47.4432 6.93099C48.7571 6.36262 50.1758 6.07651 51.6073 6.09119C53.1135 6.0763 54.6026 6.41148 55.9572 7.07031C55.9071 6.75806 55.8825 6.44226 55.8837 6.12602C55.8751 5.31997 56.0421 4.52171 56.3729 3.78661C56.7036 3.05152 57.1904 2.39718 57.7993 1.869C58.9742 0.901288 60.4615 0.394968 61.9828 0.444826H76.0194C76.7484 0.450561 77.471 0.581465 78.1557 0.831829C79.0573 0.318022 80.0785 0.0510459 81.1163 0.0578234C81.9503 0.0409297 82.778 0.205187 83.5423 0.539259C84.3067 0.873331 84.9895 1.36926 85.5436 1.99284C86.5169 3.15502 87.0451 4.6256 87.0335 6.1415C87.4281 6.09925 87.8248 6.07858 88.2216 6.07958C89.8247 6.06075 91.4063 6.44818 92.8192 7.20576C93.6236 7.64411 94.3516 8.21003 94.9748 8.88148C95.9392 8.05644 97.0372 7.40204 98.2218 6.94647C99.7305 6.3725 101.333 6.08381 102.947 6.09506C104.578 6.07896 106.198 6.37315 107.719 6.96195C109.196 7.53571 110.532 8.42003 111.638 9.55507C112.744 10.6901 113.593 12.0494 114.128 13.541C115.19 16.571 115.19 19.8726 114.128 22.9026C113.587 24.3954 112.737 25.7567 111.631 26.8965C110.526 28.0379 109.188 28.9276 107.707 29.5048C106.184 30.0841 104.565 30.3703 102.935 30.3485ZM14.9117 11.3157C14.6681 11.2919 14.4226 11.3326 14.1997 11.4338C13.9769 11.5351 13.7846 11.6932 13.6424 11.8924C13.2863 12.3529 12.8683 13.3398 12.8683 15.3754C12.8291 16.2964 12.9684 17.2163 13.2786 18.0844C13.3779 18.3887 13.5634 18.6576 13.8126 18.8584C14.1109 19.0326 14.455 19.1122 14.7995 19.0867C15.1381 19.1124 15.4766 19.0355 15.7709 18.8661C16.0478 18.6181 16.2502 18.2978 16.3552 17.9412C16.6432 17.0551 17.0746 16.2223 17.6323 15.476C17.7951 15.263 17.975 15.0637 18.1703 14.88L18.1393 14.8529C17.4336 14.1616 16.8465 13.3588 16.4017 12.4767C16.2198 12.0696 15.9439 11.7115 15.5967 11.4318C15.3845 11.3275 15.1465 11.2872 14.9117 11.3157Z" fill="#0F2167"/>
</svg>
