<svg width="20" height="23" viewBox="0 0 20 23" fill="none" xmlns="http://www.w3.org/2000/svg">
<path d="M19.7223 15.4102C19.7046 16.1893 19.5295 16.9567 19.2076 17.6664C18.3333 19.5999 16.7498 21.1239 14.7842 21.9235C13.5188 22.4351 12.1626 22.6839 10.7981 22.6549C9.74282 22.6636 8.68996 22.5533 7.65947 22.3259C6.75712 22.124 5.89244 21.7805 5.09751 21.3081C4.29623 20.8198 3.57992 20.2041 2.97674 19.4853C2.39338 18.794 1.8993 18.0321 1.50613 17.2175C1.09384 16.3541 0.78594 15.4447 0.588932 14.5085C0.38059 13.4898 0.279418 12.4522 0.28707 11.4125C0.263791 9.80779 0.525867 8.21174 1.06107 6.69877C1.53165 5.36947 2.27814 4.15478 3.25151 3.13448C4.19402 2.15361 5.3354 1.38565 6.59908 0.882123C7.89857 0.362641 9.28638 0.0997981 10.6858 0.108118C12.3201 0.0785729 13.9378 0.440848 15.4034 1.16463C16.6553 1.76501 17.742 2.66168 18.5691 3.7769C19.2327 4.61601 19.617 5.64179 19.6682 6.71038C19.6693 7.20885 19.4779 7.68852 19.1341 8.04941C18.9733 8.2337 18.7745 8.381 18.5514 8.4812C18.3282 8.58141 18.0861 8.63214 17.8415 8.62991C17.3832 8.66874 16.9275 8.53022 16.5683 8.24291C16.1803 7.83356 15.8567 7.36773 15.6085 6.86131C15.1391 5.90563 14.4461 5.07725 13.5883 4.44642C12.7348 3.88703 11.7289 3.60581 10.709 3.64145C9.87382 3.61326 9.04406 3.78629 8.28971 4.14595C7.53536 4.50561 6.87854 5.04137 6.37462 5.70804C5.30649 7.08061 4.77243 9.03627 4.77243 11.575C4.72825 13.0185 4.97162 14.4564 5.48838 15.8049C5.87885 16.8302 6.57452 17.7109 7.48145 18.3282C8.41115 18.8986 9.4872 19.1851 10.5775 19.1525C11.7236 19.1864 12.851 18.8558 13.7973 18.2082C14.7246 17.5054 15.4168 16.5379 15.7827 15.4334C15.934 14.9292 16.1695 14.4542 16.4793 14.0286C16.6437 13.8388 16.8508 13.6907 17.0835 13.5965C17.3163 13.5023 17.5681 13.4647 17.8183 13.4868C18.0694 13.4829 18.3187 13.5296 18.5514 13.624C18.784 13.7184 18.9954 13.8586 19.1728 14.0363C19.3546 14.2148 19.4973 14.429 19.5919 14.6655C19.6865 14.902 19.7309 15.1556 19.7223 15.4102Z" fill="#3559E0"/>
</svg>
