<svg width="115" height="31" viewBox="0 0 115 31" fill="none" xmlns="http://www.w3.org/2000/svg">
<path d="M102.927 30.3689C101.298 30.3874 99.6802 30.0918 98.1629 29.4981C97.3975 29.1895 96.6672 28.8003 95.9841 28.3371C95.9513 28.3789 95.9165 28.4189 95.8796 28.4571C95.3328 29.0722 94.6607 29.5631 93.9084 29.8969C93.1561 30.2306 92.341 30.3995 91.5181 30.3921C89.1187 30.3921 87.261 29.204 86.3168 27.2458C85.8318 28.21 85.0837 29.0171 84.1592 29.5739C83.2346 30.1307 82.1713 30.4144 81.0922 30.3921C77.5782 30.3921 75.2175 27.8456 75.2175 24.0569V11.8431H75.0511V23.8092C75.0511 25.7442 74.4977 27.2922 73.4141 28.4532C72.8444 29.0564 72.1575 29.5369 71.3955 29.8653C70.6336 30.1938 69.8126 30.3632 68.9829 30.3632C68.1532 30.3632 67.3322 30.1938 66.5703 29.8653C65.8083 29.5369 65.1215 29.0564 64.5517 28.4532C63.4604 27.269 62.9108 25.7055 62.9108 23.8092V11.8431H61.9627C61.3433 11.847 60.7259 11.7742 60.1244 11.6263C60.404 12.3039 60.5977 13.0138 60.7011 13.7394C60.8142 14.6482 60.8659 15.5636 60.8559 16.4794V24.022C60.9162 25.6378 60.3632 27.2166 59.3079 28.4416C58.6736 29.1478 57.8766 29.6886 56.986 30.0171C56.0955 30.3456 55.1383 30.4519 54.1973 30.3269C53.2564 30.2018 52.3602 29.8492 51.5864 29.2994C50.8125 28.7497 50.1845 28.0196 49.7566 27.1722C49.3937 27.8701 48.8951 28.4886 48.2901 28.9914C47.6851 29.4942 46.9859 29.8713 46.2334 30.1005C45.4809 30.3297 44.6902 30.4065 43.9077 30.3263C43.1251 30.2461 42.3664 30.0106 41.676 29.6336C40.8163 30.1149 39.8477 30.368 38.8625 30.3689C37.6712 30.3629 36.515 29.9643 35.573 29.235C35.3717 29.3317 35.186 29.4207 34.9731 29.502C33.5218 30.09 31.9684 30.3846 30.4026 30.3689C28.8292 30.3892 27.2742 30.028 25.8708 29.3162C24.9896 28.8615 24.1935 28.258 23.5179 27.5322C22.5966 28.2682 21.5782 28.8738 20.4915 29.3317C18.7458 30.0451 16.8739 30.3979 14.9883 30.3689C13.6468 30.3773 12.3085 30.2359 10.9983 29.947C9.70224 29.6521 8.46039 29.1559 7.31793 28.4764C6.15553 27.7731 5.11621 26.8842 4.24126 25.8448C3.43666 24.8899 2.75894 23.835 2.22497 22.7062C1.67936 21.5644 1.27268 20.3613 1.01366 19.1226C0.749986 17.8496 0.620279 16.5525 0.626653 15.2526C0.598456 13.1956 0.931156 11.1496 1.60964 9.20758C2.26953 7.37356 3.30415 5.69707 4.64761 4.28491C5.97144 2.9195 7.56841 1.8487 9.33421 1.14245C11.0938 0.437646 12.9729 0.0789198 14.8683 0.0859295C17.1155 0.0610421 19.3363 0.571791 21.3468 1.57589C23.1558 2.46055 24.723 3.77136 25.9134 5.3956C26.34 5.9935 26.7057 6.63267 27.0047 7.30353C27.1944 7.21452 27.3918 7.12551 27.5891 7.04424C29.334 6.37915 31.1905 6.05593 33.0575 6.09221C35.3795 6.09221 37.2255 6.39407 38.7387 7.01715C39.2814 7.23687 39.8001 7.51179 40.2867 7.83759C41.1953 6.9274 42.3789 6.3426 43.6539 6.17396C44.9289 6.00532 46.2239 6.26226 47.3379 6.90491L47.4346 6.96296C48.7499 6.39462 50.1698 6.10852 51.6026 6.12317C53.1088 6.1087 54.5978 6.44385 55.9525 7.10229C55.9026 6.79002 55.878 6.47423 55.879 6.158C55.8663 5.3485 56.0313 4.54607 56.3623 3.80722C56.6932 3.06837 57.1822 2.41107 57.7947 1.88162C58.968 0.911058 60.4564 0.404359 61.9782 0.457452H76.0148C76.7426 0.461689 77.4642 0.592646 78.1471 0.844454C79.0488 0.330648 80.07 0.0636716 81.1077 0.0704491C81.9416 0.0540728 82.7692 0.218562 83.5335 0.552601C84.2978 0.886639 84.9806 1.3823 85.535 2.00546C86.5083 3.16796 87.0376 4.63802 87.0288 6.15413C87.4234 6.11175 87.8201 6.09108 88.2169 6.09221C89.82 6.07337 91.4017 6.46081 92.8145 7.21839C93.6148 7.66879 94.3363 8.24654 94.9508 8.92894C95.9174 8.10506 97.0165 7.4508 98.2016 6.99393C101.263 5.84319 104.638 5.84319 107.699 6.99393C109.176 7.5679 110.512 8.4523 111.618 9.58732C112.723 10.7223 113.572 12.0815 114.107 13.573C115.17 16.6043 115.17 19.9071 114.107 22.9384C113.566 24.4265 112.718 25.7844 111.619 26.9246C110.517 28.0541 109.187 28.9366 107.718 29.5136C106.189 30.0986 104.564 30.3888 102.927 30.3689ZM14.9032 11.3361C14.6561 11.3087 14.4062 11.3481 14.1795 11.4502C13.9528 11.5523 13.7577 11.7134 13.6145 11.9166C13.2545 12.3771 12.8405 13.364 12.8405 15.3996C12.7993 16.3207 12.9386 17.241 13.2507 18.1086C13.3496 18.4131 13.5352 18.6821 13.7847 18.8826C14.0835 19.0555 14.4272 19.135 14.7716 19.111C15.1095 19.1371 15.4472 19.0588 15.7391 18.8865C16.017 18.6402 16.2207 18.3212 16.3273 17.9654C16.6055 17.0829 17.0278 16.2525 17.5774 15.508C17.7413 15.2959 17.9211 15.0967 18.1153 14.912L18.0882 14.8849C17.3939 14.1889 16.8186 13.3835 16.3854 12.501C16.1991 12.0954 15.924 11.737 15.5804 11.4522C15.3691 11.3536 15.1352 11.3136 14.9032 11.3361Z" fill="#0F2167"/>
</svg>
