<svg width="23" height="26" viewBox="0 0 23 26" fill="none" xmlns="http://www.w3.org/2000/svg">
<path d="M18.6606 0.217243C18.1462 0.206421 17.6355 0.306602 17.1634 0.510961C16.6912 0.71532 16.2686 1.01905 15.9245 1.40147C15.2218 2.25426 14.8655 3.34001 14.926 4.44331V9.14152H8.49015V4.44331C8.49015 3.13911 8.14186 2.12129 7.45686 1.37438C7.10675 0.998941 6.68143 0.701503 6.20866 0.501458C5.73588 0.301413 5.22626 0.203251 4.713 0.213372C4.19299 0.19848 3.67606 0.297846 3.19863 0.504465C2.7212 0.711084 2.2949 1.01992 1.94981 1.40921C1.26397 2.26523 0.918085 3.34422 0.97843 4.43944V21.6146C0.918695 22.7134 1.26744 23.7955 1.95755 24.6526C2.30124 25.042 2.72599 25.3516 3.20199 25.5595C3.678 25.7674 4.19372 25.8687 4.713 25.8562C5.2251 25.8662 5.73354 25.7679 6.20504 25.5678C6.67655 25.3678 7.10048 25.0704 7.44911 24.6952C8.14185 23.956 8.49015 22.9227 8.49015 21.6185V15.8367H14.926V21.6185C14.8655 22.718 15.2159 23.8008 15.909 24.6565C16.2518 25.046 16.6758 25.3557 17.1512 25.5637C17.6266 25.7716 18.1418 25.8728 18.6606 25.86C19.1726 25.8698 19.681 25.7714 20.1525 25.5714C20.6239 25.3713 21.0479 25.0741 21.3967 24.699C22.0894 23.956 22.4377 22.9227 22.4377 21.603V4.44331C22.4377 3.14298 22.0933 2.12129 21.4044 1.37051C21.0538 0.99628 20.6282 0.700154 20.1554 0.501442C19.6826 0.302729 19.1733 0.205892 18.6606 0.217243Z" fill="#0F2167"/>
</svg>
