<svg width="71" height="50" viewBox="0 0 71 50" fill="none" xmlns="http://www.w3.org/2000/svg">
<path d="M64.2831 18.6262V18.5991C64.2831 11.6331 56.2915 5.95186 46.4384 5.95186C45.796 5.95186 45.1652 5.97508 44.5421 6.02152C44.6638 5.39349 44.6306 4.74525 44.4454 4.13295C43.8416 2.17471 41.6976 0.808594 39.2363 0.808594C38.3457 0.808548 37.4637 0.982064 36.6395 1.31944C33.3655 2.64299 32.1696 7.03159 31.8252 11.3389C31.6162 11.5505 31.415 11.7672 31.2215 11.9891C30.3004 11.7917 29.3645 11.6713 28.4235 11.6292C26.9335 9.1485 25.0101 7.01611 22.8081 7.01611C22.6969 7.01666 22.5857 7.02312 22.4752 7.03547C19.0851 7.35281 16.3141 11.9968 16.4419 14.6091C16.4565 14.9875 16.5404 15.3601 16.6895 15.7082C15.3124 16.9473 14.2114 18.4624 13.4581 20.1549C5.64836 22.0163 0.00585938 27.4189 0.00585938 33.8006C0.00585938 41.7186 8.70568 48.139 19.4411 48.139C24.6618 48.139 29.3948 46.6181 32.8895 44.149C36.8795 47.3766 42.3633 49.3736 48.4121 49.3736C60.6259 49.3736 70.5255 41.2465 70.5255 31.2425C70.5216 26.3392 68.1415 21.8925 64.2831 18.6262Z" fill="#0F2167"/>
</svg>
