<svg width="72" height="49" viewBox="0 0 72 49" fill="none" xmlns="http://www.w3.org/2000/svg">
<path d="M65.088 17.8021C65.088 10.8361 57.0964 5.15874 47.2394 5.15874C46.5996 5.15874 45.9688 5.18196 45.347 5.2284C45.4686 4.59907 45.4354 3.94962 45.2503 3.33596C44.6465 1.36612 42.5025 8.88329e-09 40.0412 8.88329e-09C39.1506 -4.53311e-05 38.2686 0.17347 37.4444 0.510843C34.1704 1.83052 32.9745 6.223 32.6301 10.5303C32.4211 10.7432 32.216 10.9599 32.0264 11.1805C31.1053 10.9831 30.1694 10.8627 29.2283 10.8206C27.7345 8.3399 25.815 6.19204 23.6129 6.19204C23.5007 6.19204 23.3885 6.19204 23.2762 6.19204C19.8861 6.51712 17.119 11.1418 17.2429 13.7696C17.2598 14.1477 17.3437 14.5198 17.4906 14.8686C16.1106 16.118 15.0106 17.6453 14.263 19.3501L13.9534 19.4275C13.8129 18.7969 13.51 18.2139 13.0749 17.7363C12.7253 17.3601 12.3002 17.0621 11.8272 16.862C11.3543 16.6619 10.8444 16.5642 10.331 16.5753C9.81103 16.5607 9.29418 16.6602 8.81679 16.8668C8.33939 17.0734 7.91307 17.3821 7.56781 17.7712C6.87781 18.6255 6.52774 19.7047 6.58482 20.8014V22.7828C3.00892 25.3835 0.779785 28.9942 0.779785 32.992C0.779785 40.91 9.48348 47.3304 20.2189 47.3304C25.4396 47.3304 30.1726 45.8095 33.6634 43.3404C37.6573 46.568 43.1372 48.5611 49.1899 48.5611C61.4037 48.5611 71.3033 40.434 71.3033 30.4339C71.3265 25.5422 68.9464 21.0839 65.088 17.8021Z" fill="#0F2167"/>
</svg>
